<?xml version="1.0" encoding="UTF-8"?>
<svg xmlns="http://www.w3.org/2000/svg" xmlns:xlink="http://www.w3.org/1999/xlink" width="375pt" height="374.999991pt" viewBox="0 0 375 374.999991" version="1.2">
<defs>
<clipPath id="clip1">
  <path d="M 119 124.78125 L 262.5 124.78125 L 262.5 249.84375 L 119 249.84375 Z M 119 124.78125 "/>
</clipPath>
<clipPath id="clip2">
  <path d="M 112.5 187 L 132 187 L 132 190 L 112.5 190 Z M 112.5 187 "/>
</clipPath>
</defs>
<g id="surface1">
<g clip-path="url(#clip1)" clip-rule="nonzero">
<path style=" stroke:none;fill-rule:nonzero;fill:rgb(78.039551%,92.939758%,90.19928%);fill-opacity:1;" d="M 255.820312 198.96875 C 257.796875 195.222656 258.929688 190.96875 258.929688 186.445312 C 258.929688 174.945312 251.683594 165.152344 241.507812 161.296875 C 241.507812 161.285156 241.507812 161.273438 241.507812 161.257812 C 241.507812 141.113281 225.128906 124.78125 204.921875 124.78125 C 187.875 124.78125 173.59375 136.421875 169.53125 152.152344 C 166.960938 151.308594 164.222656 150.835938 161.367188 150.835938 C 147.964844 150.835938 136.9375 160.898438 135.425781 173.855469 C 126.359375 175.765625 119.554688 183.785156 119.554688 193.390625 C 119.554688 204.421875 128.523438 213.367188 139.589844 213.367188 C 139.898438 213.367188 140.203125 213.347656 140.507812 213.328125 C 140.5 213.632812 140.460938 213.929688 140.460938 214.234375 C 140.460938 233.902344 156.449219 249.84375 176.175781 249.84375 C 187.390625 249.84375 197.386719 244.683594 203.9375 236.617188 C 207.730469 240.484375 213.003906 242.894531 218.859375 242.894531 C 226.960938 242.894531 233.972656 238.292969 237.441406 231.574219 C 239.273438 232.15625 241.222656 232.472656 243.25 232.472656 C 253.832031 232.472656 262.414062 223.917969 262.414062 213.367188 C 262.414062 207.617188 259.851562 202.472656 255.820312 198.96875 Z M 255.820312 198.96875 "/>
</g>
<path style=" stroke:none;fill-rule:nonzero;fill:rgb(99.21875%,98.81897%,93.728638%);fill-opacity:1;" d="M 237.152344 205.550781 L 237.152344 206.417969 L 242.378906 206.417969 L 242.378906 205.550781 C 242.378906 205.550781 249.769531 205.550781 251.960938 205.550781 C 256.289062 205.550781 259.800781 202.050781 259.800781 197.734375 C 259.800781 193.683594 256.695312 190.390625 252.734375 189.996094 C 252.773438 189.683594 252.832031 189.375 252.832031 189.050781 C 252.832031 184.734375 249.320312 181.234375 244.992188 181.234375 C 242.488281 181.234375 240.28125 182.425781 238.847656 184.25 C 238.605469 179.667969 234.835938 176.023438 230.183594 176.023438 C 225.375 176.023438 221.472656 179.910156 221.472656 184.707031 C 221.472656 185.480469 221.605469 186.21875 221.796875 186.933594 C 220.679688 185.585938 219.007812 184.707031 217.117188 184.707031 C 214.015625 184.707031 211.484375 187.027344 211.097656 190.011719 C 210.78125 189.976562 210.472656 189.917969 210.148438 189.917969 C 205.820312 189.917969 202.308594 193.417969 202.308594 197.734375 C 202.308594 202.050781 205.820312 205.550781 210.148438 205.550781 C 214.476562 205.550781 226.699219 205.550781 226.699219 205.550781 Z M 237.152344 205.550781 "/>
<path style=" stroke:none;fill-rule:nonzero;fill:rgb(27.839661%,16.859436%,16.079712%);fill-opacity:1;" d="M 230.183594 175.152344 C 224.898438 175.152344 220.601562 179.4375 220.601562 184.707031 C 220.601562 184.734375 220.601562 184.761719 220.601562 184.789062 C 219.554688 184.171875 218.355469 183.839844 217.117188 183.839844 C 213.925781 183.839844 211.175781 186.027344 210.394531 189.058594 C 210.3125 189.054688 210.230469 189.050781 210.148438 189.050781 C 205.34375 189.050781 201.4375 192.945312 201.4375 197.734375 C 201.4375 202.523438 205.34375 206.417969 210.148438 206.417969 L 237.152344 206.417969 C 237.632812 206.417969 238.023438 206.03125 238.023438 205.550781 C 238.023438 205.070312 237.632812 204.683594 237.152344 204.683594 L 210.148438 204.683594 C 206.304688 204.683594 203.179688 201.566406 203.179688 197.734375 C 203.179688 193.902344 206.304688 190.785156 210.148438 190.785156 C 210.351562 190.785156 210.550781 190.816406 210.746094 190.84375 L 210.992188 190.875 C 211.027344 190.878906 211.0625 190.882812 211.101562 190.882812 C 211.527344 190.882812 211.90625 190.5625 211.960938 190.125 C 212.292969 187.53125 214.511719 185.574219 217.117188 185.574219 C 218.660156 185.574219 220.117188 186.273438 221.125 187.484375 C 221.296875 187.691406 221.546875 187.800781 221.796875 187.800781 C 221.933594 187.800781 222.070312 187.769531 222.195312 187.707031 C 222.558594 187.519531 222.742188 187.105469 222.636719 186.710938 C 222.4375 185.953125 222.34375 185.320312 222.34375 184.707031 C 222.34375 180.398438 225.859375 176.890625 230.183594 176.890625 C 234.332031 176.890625 237.757812 180.140625 237.976562 184.296875 C 237.996094 184.65625 238.238281 184.96875 238.585938 185.078125 C 238.671875 185.105469 238.761719 185.117188 238.851562 185.117188 C 239.113281 185.117188 239.367188 185 239.535156 184.785156 C 240.878906 183.078125 242.863281 182.101562 244.992188 182.101562 C 248.835938 182.101562 251.960938 185.21875 251.960938 189.050781 C 251.960938 189.253906 251.929688 189.449219 251.90625 189.644531 L 251.871094 189.890625 C 251.84375 190.125 251.910156 190.355469 252.058594 190.539062 C 252.203125 190.71875 252.417969 190.835938 252.648438 190.859375 C 256.230469 191.214844 258.929688 194.171875 258.929688 197.734375 C 258.929688 201.566406 255.804688 204.683594 251.960938 204.683594 L 242.378906 204.683594 C 241.898438 204.683594 241.507812 205.070312 241.507812 205.550781 C 241.507812 206.03125 241.898438 206.417969 242.378906 206.417969 L 251.960938 206.417969 C 256.765625 206.417969 260.671875 202.523438 260.671875 197.734375 C 260.671875 193.570312 257.730469 190.070312 253.699219 189.261719 C 253.703125 189.191406 253.703125 189.121094 253.703125 189.050781 C 253.703125 184.261719 249.796875 180.363281 244.992188 180.363281 C 242.945312 180.363281 240.996094 181.085938 239.445312 182.386719 C 238.40625 178.210938 234.636719 175.152344 230.183594 175.152344 Z M 230.183594 175.152344 "/>
<path style=" stroke:none;fill-rule:nonzero;fill:rgb(27.839661%,16.859436%,16.079712%);fill-opacity:1;" d="M 227.570312 187.3125 C 225.125 187.3125 223.023438 189.046875 222.496094 191.378906 C 221.855469 190.992188 221.125 190.785156 220.382812 190.785156 C 218.289062 190.785156 216.554688 192.34375 216.285156 194.378906 C 215.929688 194.296875 215.59375 194.261719 215.265625 194.261719 C 212.601562 194.261719 210.367188 196.34375 210.179688 199.007812 C 210.164062 199.246094 210.347656 199.453125 210.585938 199.472656 C 210.597656 199.472656 210.605469 199.472656 210.617188 199.472656 C 210.84375 199.472656 211.035156 199.296875 211.050781 199.070312 C 211.207031 196.859375 213.054688 195.128906 215.265625 195.128906 C 215.664062 195.128906 216.085938 195.203125 216.550781 195.351562 C 216.589844 195.363281 216.628906 195.367188 216.667969 195.367188 C 216.761719 195.367188 216.859375 195.332031 216.941406 195.273438 C 217.050781 195.191406 217.117188 195.050781 217.117188 194.910156 C 217.117188 193.117188 218.582031 191.65625 220.382812 191.65625 C 221.164062 191.65625 221.925781 191.945312 222.527344 192.476562 C 222.609375 192.546875 222.714844 192.585938 222.816406 192.585938 C 222.871094 192.585938 222.925781 192.574219 222.976562 192.554688 C 223.132812 192.492188 223.234375 192.351562 223.246094 192.183594 C 223.429688 189.9375 225.328125 188.179688 227.570312 188.179688 C 227.933594 188.179688 228.3125 188.238281 228.757812 188.367188 C 228.796875 188.378906 228.839844 188.382812 228.878906 188.382812 C 229.070312 188.382812 229.242188 188.257812 229.296875 188.066406 C 229.363281 187.835938 229.230469 187.597656 228.996094 187.53125 C 228.472656 187.382812 228.015625 187.3125 227.570312 187.3125 Z M 227.570312 187.3125 "/>
<path style=" stroke:none;fill-rule:nonzero;fill:rgb(27.839661%,16.859436%,16.079712%);fill-opacity:1;" d="M 251.757812 189.917969 C 249.445312 189.917969 247.386719 191.476562 246.75 193.707031 C 246.683594 193.9375 246.816406 194.179688 247.050781 194.246094 C 247.089844 194.253906 247.132812 194.261719 247.167969 194.261719 C 247.359375 194.261719 247.535156 194.136719 247.589844 193.945312 C 248.121094 192.085938 249.832031 190.785156 251.757812 190.785156 C 251.960938 190.785156 252.15625 190.8125 252.351562 190.835938 C 252.375 190.839844 252.394531 190.84375 252.414062 190.84375 C 252.625 190.84375 252.8125 190.683594 252.84375 190.464844 C 252.875 190.226562 252.707031 190.007812 252.46875 189.976562 C 252.234375 189.945312 252 189.917969 251.757812 189.917969 Z M 251.757812 189.917969 "/>
<g clip-path="url(#clip2)" clip-rule="nonzero">
<path style=" stroke:none;fill-rule:nonzero;fill:rgb(100%,100%,100%);fill-opacity:1;" d="M 130.878906 189.050781 L 113.457031 189.050781 C 112.976562 189.050781 112.585938 188.660156 112.585938 188.179688 C 112.585938 187.703125 112.976562 187.3125 113.457031 187.3125 L 130.878906 187.3125 C 131.359375 187.3125 131.75 187.703125 131.75 188.179688 C 131.75 188.660156 131.363281 189.050781 130.878906 189.050781 Z M 130.878906 189.050781 "/>
</g>
<path style=" stroke:none;fill-rule:nonzero;fill:rgb(100%,100%,100%);fill-opacity:1;" d="M 136.105469 189.050781 L 134.363281 189.050781 C 133.882812 189.050781 133.492188 188.660156 133.492188 188.179688 C 133.492188 187.703125 133.882812 187.3125 134.363281 187.3125 L 136.105469 187.3125 C 136.585938 187.3125 136.976562 187.703125 136.976562 188.179688 C 136.976562 188.660156 136.589844 189.050781 136.105469 189.050781 Z M 136.105469 189.050781 "/>
<path style=" stroke:none;fill-rule:nonzero;fill:rgb(100%,100%,100%);fill-opacity:1;" d="M 144.800781 192.523438 L 129.136719 192.523438 C 128.65625 192.523438 128.265625 192.132812 128.265625 191.65625 C 128.265625 191.175781 128.65625 190.785156 129.136719 190.785156 L 144.800781 190.785156 C 145.28125 190.785156 145.671875 191.175781 145.671875 191.65625 C 145.671875 192.132812 145.28125 192.523438 144.800781 192.523438 Z M 144.800781 192.523438 "/>
<path style=" stroke:none;fill-rule:nonzero;fill:rgb(100%,100%,100%);fill-opacity:1;" d="M 125.652344 192.523438 L 123.910156 192.523438 C 123.429688 192.523438 123.039062 192.132812 123.039062 191.65625 C 123.039062 191.175781 123.429688 190.785156 123.910156 190.785156 L 125.652344 190.785156 C 126.132812 190.785156 126.523438 191.175781 126.523438 191.65625 C 126.523438 192.132812 126.136719 192.523438 125.652344 192.523438 Z M 125.652344 192.523438 "/>
<path style=" stroke:none;fill-rule:nonzero;fill:rgb(100%,100%,100%);fill-opacity:1;" d="M 120.425781 192.523438 L 116.941406 192.523438 C 116.460938 192.523438 116.070312 192.132812 116.070312 191.65625 C 116.070312 191.175781 116.460938 190.785156 116.941406 190.785156 L 120.425781 190.785156 C 120.90625 190.785156 121.296875 191.175781 121.296875 191.65625 C 121.296875 192.132812 120.910156 192.523438 120.425781 192.523438 Z M 120.425781 192.523438 "/>
<path style=" stroke:none;fill-rule:nonzero;fill:rgb(100%,100%,100%);fill-opacity:1;" d="M 130.878906 195.996094 L 127.394531 195.996094 C 126.914062 195.996094 126.523438 195.609375 126.523438 195.128906 C 126.523438 194.648438 126.914062 194.261719 127.394531 194.261719 L 130.878906 194.261719 C 131.359375 194.261719 131.75 194.648438 131.75 195.128906 C 131.75 195.609375 131.359375 195.996094 130.878906 195.996094 Z M 130.878906 195.996094 "/>
<path style=" stroke:none;fill-rule:nonzero;fill:rgb(100%,100%,100%);fill-opacity:1;" d="M 136.105469 180.363281 C 135.796875 180.363281 134.671875 180.363281 134.363281 180.363281 C 133.882812 180.363281 133.492188 180.753906 133.492188 181.234375 C 133.492188 181.710938 133.882812 182.101562 134.363281 182.101562 C 134.671875 182.101562 135.796875 182.101562 136.105469 182.101562 C 136.585938 182.101562 136.976562 181.710938 136.976562 181.234375 C 136.976562 180.753906 136.585938 180.363281 136.105469 180.363281 Z M 136.105469 180.363281 "/>
<path style=" stroke:none;fill-rule:nonzero;fill:rgb(100%,100%,100%);fill-opacity:1;" d="M 136.105469 183.839844 C 135.796875 183.839844 127.703125 183.839844 127.394531 183.839844 C 126.914062 183.839844 126.523438 184.226562 126.523438 184.707031 C 126.523438 185.1875 126.914062 185.574219 127.394531 185.574219 C 127.703125 185.574219 135.796875 185.574219 136.105469 185.574219 C 136.585938 185.574219 136.976562 185.1875 136.976562 184.707031 C 136.976562 184.226562 136.585938 183.839844 136.105469 183.839844 Z M 136.105469 183.839844 "/>
<path style=" stroke:none;fill-rule:nonzero;fill:rgb(100%,100%,100%);fill-opacity:1;" d="M 144.816406 187.3125 C 144.507812 187.3125 139.898438 187.3125 139.589844 187.3125 C 139.109375 187.3125 138.71875 187.703125 138.71875 188.179688 C 138.71875 188.660156 139.109375 189.050781 139.589844 189.050781 C 139.898438 189.050781 144.507812 189.050781 144.816406 189.050781 C 145.296875 189.050781 145.6875 188.660156 145.6875 188.179688 C 145.6875 187.703125 145.296875 187.3125 144.816406 187.3125 Z M 144.816406 187.3125 "/>
<path style=" stroke:none;fill-rule:nonzero;fill:rgb(100%,100%,100%);fill-opacity:1;" d="M 230.183594 142.152344 L 212.761719 142.152344 C 212.28125 142.152344 211.890625 141.761719 211.890625 141.28125 C 211.890625 140.804688 212.28125 140.414062 212.761719 140.414062 L 230.183594 140.414062 C 230.664062 140.414062 231.054688 140.804688 231.054688 141.28125 C 231.054688 141.761719 230.664062 142.152344 230.183594 142.152344 Z M 230.183594 142.152344 "/>
<path style=" stroke:none;fill-rule:nonzero;fill:rgb(100%,100%,100%);fill-opacity:1;" d="M 237.152344 142.152344 L 233.667969 142.152344 C 233.1875 142.152344 232.796875 141.761719 232.796875 141.28125 C 232.796875 140.804688 233.1875 140.414062 233.667969 140.414062 L 237.152344 140.414062 C 237.632812 140.414062 238.023438 140.804688 238.023438 141.28125 C 238.023438 141.761719 237.632812 142.152344 237.152344 142.152344 Z M 237.152344 142.152344 "/>
<path style=" stroke:none;fill-rule:nonzero;fill:rgb(100%,100%,100%);fill-opacity:1;" d="M 245.863281 145.625 L 228.441406 145.625 C 227.960938 145.625 227.570312 145.234375 227.570312 144.757812 C 227.570312 144.277344 227.960938 143.886719 228.441406 143.886719 L 245.863281 143.886719 C 246.34375 143.886719 246.734375 144.277344 246.734375 144.757812 C 246.734375 145.234375 246.347656 145.625 245.863281 145.625 Z M 245.863281 145.625 "/>
<path style=" stroke:none;fill-rule:nonzero;fill:rgb(100%,100%,100%);fill-opacity:1;" d="M 224.957031 145.625 L 223.214844 145.625 C 222.734375 145.625 222.34375 145.234375 222.34375 144.757812 C 222.34375 144.277344 222.734375 143.886719 223.214844 143.886719 L 224.957031 143.886719 C 225.4375 143.886719 225.828125 144.277344 225.828125 144.757812 C 225.828125 145.234375 225.4375 145.625 224.957031 145.625 Z M 224.957031 145.625 "/>
<path style=" stroke:none;fill-rule:nonzero;fill:rgb(100%,100%,100%);fill-opacity:1;" d="M 219.679688 145.625 L 216.246094 145.625 C 215.765625 145.625 215.375 145.234375 215.375 144.757812 C 215.375 144.277344 215.765625 143.886719 216.246094 143.886719 L 219.679688 143.886719 C 220.160156 143.886719 220.550781 144.277344 220.550781 144.757812 C 220.550781 145.234375 220.160156 145.625 219.679688 145.625 Z M 219.679688 145.625 "/>
<path style=" stroke:none;fill-rule:nonzero;fill:rgb(100%,100%,100%);fill-opacity:1;" d="M 235.410156 138.675781 L 226.699219 138.675781 C 226.21875 138.675781 225.828125 138.289062 225.828125 137.808594 C 225.828125 137.328125 226.21875 136.941406 226.699219 136.941406 L 235.410156 136.941406 C 235.890625 136.941406 236.28125 137.328125 236.28125 137.808594 C 236.28125 138.289062 235.894531 138.675781 235.410156 138.675781 Z M 235.410156 138.675781 "/>
<path style=" stroke:none;fill-rule:nonzero;fill:rgb(100%,100%,100%);fill-opacity:1;" d="M 230.183594 149.097656 L 226.699219 149.097656 C 226.21875 149.097656 225.828125 148.710938 225.828125 148.230469 C 225.828125 147.75 226.21875 147.363281 226.699219 147.363281 L 230.183594 147.363281 C 230.664062 147.363281 231.054688 147.75 231.054688 148.230469 C 231.054688 148.710938 230.664062 149.097656 230.183594 149.097656 Z M 230.183594 149.097656 "/>
<path style=" stroke:none;fill-rule:nonzero;fill:rgb(47.059631%,63.529968%,82.348633%);fill-opacity:1;" d="M 234.972656 187.3125 C 234.972656 188.636719 234.910156 189.953125 234.78125 191.269531 C 234.648438 192.585938 234.457031 193.894531 234.195312 195.191406 C 233.9375 196.488281 233.617188 197.769531 233.230469 199.035156 C 232.84375 200.300781 232.398438 201.546875 231.890625 202.765625 C 231.382812 203.988281 230.816406 205.183594 230.191406 206.351562 C 229.566406 207.515625 228.886719 208.648438 228.148438 209.75 C 227.410156 210.847656 226.621094 211.910156 225.78125 212.933594 C 224.9375 213.953125 224.046875 214.933594 223.109375 215.867188 C 222.171875 216.804688 221.191406 217.691406 220.164062 218.53125 C 219.140625 219.371094 218.074219 220.15625 216.972656 220.890625 C 215.871094 221.625 214.734375 222.304688 213.5625 222.929688 C 212.394531 223.550781 211.195312 224.117188 209.96875 224.625 C 208.742188 225.128906 207.496094 225.574219 206.226562 225.957031 C 204.957031 226.34375 203.671875 226.664062 202.371094 226.921875 C 201.070312 227.179688 199.757812 227.375 198.4375 227.503906 C 197.117188 227.632812 195.796875 227.699219 194.46875 227.699219 C 193.140625 227.699219 191.820312 227.632812 190.5 227.503906 C 189.179688 227.375 187.867188 227.179688 186.566406 226.921875 C 185.265625 226.664062 183.980469 226.34375 182.710938 225.957031 C 181.441406 225.574219 180.195312 225.128906 178.96875 224.625 C 177.742188 224.117188 176.542969 223.550781 175.375 222.929688 C 174.203125 222.304688 173.066406 221.625 171.964844 220.890625 C 170.863281 220.15625 169.796875 219.371094 168.773438 218.53125 C 167.746094 217.691406 166.765625 216.804688 165.828125 215.867188 C 164.890625 214.933594 164 213.953125 163.15625 212.933594 C 162.316406 211.910156 161.527344 210.847656 160.789062 209.75 C 160.050781 208.648438 159.371094 207.515625 158.746094 206.351562 C 158.121094 205.183594 157.554688 203.988281 157.046875 202.765625 C 156.539062 201.546875 156.09375 200.300781 155.707031 199.035156 C 155.320312 197.769531 155 196.488281 154.742188 195.191406 C 154.480469 193.894531 154.289062 192.585938 154.15625 191.269531 C 154.027344 189.953125 153.960938 188.636719 153.960938 187.3125 C 153.960938 185.988281 154.027344 184.671875 154.15625 183.355469 C 154.289062 182.039062 154.480469 180.730469 154.742188 179.433594 C 155 178.136719 155.320312 176.855469 155.707031 175.589844 C 156.09375 174.324219 156.539062 173.078125 157.046875 171.859375 C 157.554688 170.636719 158.121094 169.441406 158.746094 168.273438 C 159.371094 167.109375 160.050781 165.976562 160.789062 164.875 C 161.527344 163.777344 162.316406 162.714844 163.15625 161.691406 C 164 160.671875 164.890625 159.691406 165.828125 158.757812 C 166.765625 157.820312 167.746094 156.933594 168.773438 156.09375 C 169.796875 155.253906 170.863281 154.46875 171.964844 153.734375 C 173.066406 153 174.203125 152.320312 175.375 151.695312 C 176.542969 151.074219 177.742188 150.507812 178.96875 150 C 180.195312 149.496094 181.441406 149.050781 182.710938 148.667969 C 183.980469 148.28125 185.265625 147.960938 186.566406 147.703125 C 187.867188 147.445312 189.179688 147.25 190.5 147.121094 C 191.820312 146.992188 193.140625 146.929688 194.46875 146.929688 C 195.796875 146.929688 197.117188 146.992188 198.4375 147.121094 C 199.757812 147.25 201.070312 147.445312 202.371094 147.703125 C 203.671875 147.960938 204.957031 148.28125 206.226562 148.667969 C 207.496094 149.050781 208.742188 149.496094 209.96875 150 C 211.195312 150.507812 212.394531 151.074219 213.5625 151.695312 C 214.734375 152.320312 215.871094 153 216.972656 153.734375 C 218.074219 154.46875 219.140625 155.253906 220.164062 156.09375 C 221.191406 156.933594 222.171875 157.820312 223.109375 158.757812 C 224.046875 159.691406 224.9375 160.671875 225.78125 161.691406 C 226.621094 162.714844 227.410156 163.777344 228.148438 164.875 C 228.886719 165.976562 229.566406 167.109375 230.191406 168.273438 C 230.816406 169.441406 231.382812 170.636719 231.890625 171.859375 C 232.398438 173.078125 232.84375 174.324219 233.230469 175.589844 C 233.617188 176.855469 233.9375 178.136719 234.195312 179.433594 C 234.457031 180.730469 234.648438 182.039062 234.78125 183.355469 C 234.910156 184.671875 234.972656 185.988281 234.972656 187.3125 Z M 234.972656 187.3125 "/>
<path style=" stroke:none;fill-rule:nonzero;fill:rgb(27.839661%,16.859436%,16.079712%);fill-opacity:1;" d="M 194.46875 228.914062 C 171.460938 228.914062 152.742188 210.25 152.742188 187.3125 C 152.742188 164.375 171.460938 145.710938 194.46875 145.710938 C 217.476562 145.710938 236.195312 164.375 236.195312 187.3125 C 236.195312 210.25 217.476562 228.914062 194.46875 228.914062 Z M 194.46875 148.144531 C 172.804688 148.144531 155.183594 165.714844 155.183594 187.3125 C 155.183594 208.910156 172.804688 226.480469 194.46875 226.480469 C 216.132812 226.480469 233.753906 208.910156 233.753906 187.3125 C 233.753906 165.714844 216.132812 148.144531 194.46875 148.144531 Z M 194.46875 148.144531 "/>
<path style=" stroke:none;fill-rule:nonzero;fill:rgb(47.059631%,63.529968%,82.348633%);fill-opacity:1;" d="M 228.503906 187.519531 C 228.503906 188.632812 228.449219 189.742188 228.339844 190.847656 C 228.226562 191.953125 228.066406 193.050781 227.847656 194.140625 C 227.628906 195.230469 227.355469 196.308594 227.03125 197.371094 C 226.707031 198.433594 226.332031 199.480469 225.902344 200.507812 C 225.476562 201.53125 225 202.535156 224.472656 203.515625 C 223.945312 204.496094 223.371094 205.449219 222.75 206.371094 C 222.128906 207.296875 221.460938 208.1875 220.753906 209.046875 C 220.042969 209.90625 219.292969 210.730469 218.503906 211.515625 C 217.714844 212.300781 216.886719 213.046875 216.019531 213.75 C 215.15625 214.457031 214.261719 215.117188 213.332031 215.734375 C 212.402344 216.351562 211.441406 216.921875 210.457031 217.445312 C 209.472656 217.96875 208.460938 218.445312 207.429688 218.871094 C 206.394531 219.296875 205.34375 219.667969 204.273438 219.992188 C 203.203125 220.316406 202.121094 220.585938 201.023438 220.800781 C 199.925781 221.019531 198.824219 221.179688 197.710938 221.289062 C 196.597656 221.398438 195.480469 221.453125 194.363281 221.453125 C 193.246094 221.453125 192.128906 221.398438 191.019531 221.289062 C 189.90625 221.179688 188.800781 221.019531 187.703125 220.800781 C 186.609375 220.585938 185.523438 220.316406 184.453125 219.992188 C 183.382812 219.667969 182.332031 219.296875 181.300781 218.871094 C 180.265625 218.445312 179.257812 217.96875 178.273438 217.445312 C 177.285156 216.921875 176.328125 216.351562 175.398438 215.734375 C 174.46875 215.117188 173.570312 214.457031 172.707031 213.75 C 171.84375 213.046875 171.015625 212.300781 170.226562 211.515625 C 169.433594 210.730469 168.683594 209.90625 167.976562 209.046875 C 167.265625 208.1875 166.601562 207.296875 165.980469 206.371094 C 165.359375 205.449219 164.785156 204.496094 164.257812 203.515625 C 163.730469 202.535156 163.253906 201.53125 162.824219 200.507812 C 162.398438 199.480469 162.019531 198.433594 161.695312 197.371094 C 161.371094 196.308594 161.101562 195.230469 160.882812 194.140625 C 160.664062 193.050781 160.5 191.953125 160.390625 190.847656 C 160.28125 189.742188 160.226562 188.632812 160.226562 187.519531 C 160.226562 186.410156 160.28125 185.300781 160.390625 184.195312 C 160.5 183.089844 160.664062 181.992188 160.882812 180.902344 C 161.101562 179.8125 161.371094 178.734375 161.695312 177.671875 C 162.019531 176.609375 162.398438 175.5625 162.824219 174.535156 C 163.253906 173.507812 163.730469 172.503906 164.257812 171.527344 C 164.785156 170.546875 165.359375 169.59375 165.980469 168.667969 C 166.601562 167.746094 167.265625 166.855469 167.976562 165.996094 C 168.683594 165.136719 169.433594 164.3125 170.226562 163.527344 C 171.015625 162.742188 171.84375 161.996094 172.707031 161.292969 C 173.570312 160.585938 174.46875 159.925781 175.398438 159.308594 C 176.328125 158.691406 177.285156 158.121094 178.273438 157.597656 C 179.257812 157.070312 180.265625 156.597656 181.300781 156.171875 C 182.332031 155.746094 183.382812 155.371094 184.453125 155.050781 C 185.523438 154.726562 186.609375 154.457031 187.703125 154.242188 C 188.800781 154.023438 189.90625 153.863281 191.019531 153.753906 C 192.128906 153.644531 193.246094 153.589844 194.363281 153.589844 C 195.480469 153.589844 196.597656 153.644531 197.710938 153.753906 C 198.824219 153.863281 199.925781 154.023438 201.023438 154.242188 C 202.121094 154.457031 203.203125 154.726562 204.273438 155.050781 C 205.34375 155.371094 206.394531 155.746094 207.429688 156.171875 C 208.460938 156.597656 209.472656 157.070312 210.457031 157.597656 C 211.441406 158.121094 212.402344 158.691406 213.332031 159.308594 C 214.261719 159.925781 215.15625 160.585938 216.019531 161.292969 C 216.886719 161.996094 217.714844 162.742188 218.503906 163.527344 C 219.292969 164.3125 220.042969 165.136719 220.753906 165.996094 C 221.460938 166.855469 222.128906 167.746094 222.75 168.667969 C 223.371094 169.59375 223.945312 170.546875 224.472656 171.527344 C 225 172.503906 225.476562 173.507812 225.902344 174.535156 C 226.332031 175.5625 226.707031 176.609375 227.03125 177.671875 C 227.355469 178.734375 227.628906 179.8125 227.847656 180.902344 C 228.066406 181.992188 228.226562 183.089844 228.339844 184.195312 C 228.449219 185.300781 228.503906 186.410156 228.503906 187.519531 Z M 228.503906 187.519531 "/>
<path style=" stroke:none;fill-rule:nonzero;fill:rgb(27.839661%,16.859436%,16.079712%);fill-opacity:1;" d="M 226.914062 178.605469 C 226.539062 178.605469 226.195312 178.367188 226.082031 177.992188 C 225.933594 177.515625 225.777344 177.039062 225.609375 176.574219 C 224.957031 174.753906 224.128906 172.980469 223.15625 171.300781 C 222.914062 170.886719 223.054688 170.355469 223.472656 170.113281 C 223.890625 169.871094 224.421875 170.015625 224.664062 170.433594 C 225.6875 172.203125 226.558594 174.070312 227.246094 175.984375 C 227.425781 176.476562 227.589844 176.976562 227.746094 177.480469 C 227.886719 177.941406 227.628906 178.425781 227.167969 178.566406 C 227.085938 178.59375 226.996094 178.605469 226.914062 178.605469 Z M 226.914062 178.605469 "/>
<path style=" stroke:none;fill-rule:nonzero;fill:rgb(27.839661%,16.859436%,16.079712%);fill-opacity:1;" d="M 194.46875 222.113281 C 175.222656 222.113281 159.5625 206.546875 159.5625 187.414062 C 159.5625 168.285156 175.222656 152.71875 194.46875 152.71875 C 204.457031 152.71875 213.988281 156.988281 220.613281 164.425781 C 221.113281 164.988281 221.597656 165.566406 222.0625 166.164062 C 222.355469 166.542969 222.289062 167.085938 221.910156 167.378906 C 221.53125 167.679688 220.984375 167.609375 220.6875 167.226562 C 220.246094 166.664062 219.789062 166.113281 219.3125 165.578125 C 213.015625 158.511719 203.960938 154.457031 194.46875 154.457031 C 176.183594 154.457031 161.308594 169.242188 161.308594 187.414062 C 161.308594 205.589844 176.183594 220.375 194.46875 220.375 C 212.753906 220.375 227.632812 205.589844 227.632812 187.414062 C 227.632812 185.757812 227.503906 184.09375 227.261719 182.472656 C 227.1875 181.996094 227.515625 181.554688 227.992188 181.484375 C 228.46875 181.410156 228.910156 181.738281 228.984375 182.210938 C 229.242188 183.917969 229.375 185.667969 229.375 187.414062 C 229.375 206.546875 213.714844 222.113281 194.46875 222.113281 Z M 194.46875 222.113281 "/>
<path style=" stroke:none;fill-rule:nonzero;fill:rgb(99.21875%,98.81897%,93.728638%);fill-opacity:1;" d="M 167.464844 228.132812 C 167.464844 228.132812 170.195312 228.132812 173.5625 228.132812 C 176.929688 228.132812 179.660156 225.410156 179.660156 222.050781 C 179.660156 218.957031 177.335938 216.433594 174.335938 216.050781 C 174.386719 215.738281 174.433594 215.429688 174.433594 215.105469 C 174.433594 211.746094 171.703125 209.023438 168.335938 209.023438 C 166.539062 209.023438 164.9375 209.816406 163.824219 211.046875 C 163.15625 207.90625 160.363281 205.550781 157.011719 205.550781 C 153.164062 205.550781 150.042969 208.660156 150.042969 212.5 C 150.042969 212.832031 150.09375 213.148438 150.140625 213.46875 C 149.394531 212.871094 148.460938 212.5 147.429688 212.5 C 145.289062 212.5 143.519531 214.039062 143.152344 216.070312 C 142.839844 216.019531 142.527344 215.972656 142.203125 215.972656 C 138.835938 215.972656 136.105469 218.695312 136.105469 222.050781 C 136.105469 225.410156 138.835938 228.132812 142.203125 228.132812 C 145.570312 228.132812 155.269531 228.132812 155.269531 228.132812 L 155.269531 229 L 167.464844 229 Z M 167.464844 228.132812 "/>
<path style=" stroke:none;fill-rule:nonzero;fill:rgb(27.839661%,16.859436%,16.079712%);fill-opacity:1;" d="M 170.511719 220.316406 C 170.273438 220.316406 170.078125 220.121094 170.078125 219.882812 C 170.078125 217.757812 171.8125 216.027344 173.941406 216.027344 C 174 216.042969 175.226562 216.027344 176.109375 216.265625 C 176.339844 216.328125 176.480469 216.566406 176.417969 216.796875 C 176.351562 217.027344 176.113281 217.167969 175.882812 217.101562 C 175.109375 216.894531 173.964844 216.894531 173.945312 216.898438 C 172.292969 216.898438 170.949219 218.234375 170.949219 219.882812 C 170.949219 220.121094 170.753906 220.316406 170.511719 220.316406 Z M 170.511719 220.316406 "/>
<path style=" stroke:none;fill-rule:nonzero;fill:rgb(27.839661%,16.859436%,16.079712%);fill-opacity:1;" d="M 159.625 228.132812 C 159.625 228.371094 159.539062 228.578125 159.371094 228.746094 C 159.199219 228.914062 158.996094 229 158.753906 229 C 158.511719 229 158.308594 228.914062 158.136719 228.746094 C 157.96875 228.578125 157.882812 228.371094 157.882812 228.132812 C 157.882812 227.890625 157.96875 227.6875 158.136719 227.519531 C 158.308594 227.347656 158.511719 227.261719 158.753906 227.261719 C 158.996094 227.261719 159.199219 227.347656 159.371094 227.519531 C 159.539062 227.6875 159.625 227.890625 159.625 228.132812 Z M 159.625 228.132812 "/>
<path style=" stroke:none;fill-rule:nonzero;fill:rgb(27.839661%,16.859436%,16.079712%);fill-opacity:1;" d="M 173.5625 229 L 167.464844 229 C 166.984375 229 166.59375 228.609375 166.59375 228.132812 C 166.59375 227.652344 166.984375 227.261719 167.464844 227.261719 L 173.5625 227.261719 C 176.445312 227.261719 178.789062 224.925781 178.789062 222.050781 C 178.789062 219.453125 176.828125 217.246094 174.226562 216.914062 C 173.996094 216.882812 173.785156 216.757812 173.644531 216.570312 C 173.5 216.382812 173.441406 216.148438 173.480469 215.917969 C 173.519531 215.648438 173.5625 215.382812 173.5625 215.105469 C 173.5625 212.230469 171.21875 209.894531 168.335938 209.894531 C 166.855469 209.894531 165.480469 210.511719 164.46875 211.628906 C 164.253906 211.871094 163.910156 211.972656 163.597656 211.886719 C 163.28125 211.800781 163.039062 211.546875 162.972656 211.230469 C 162.378906 208.441406 159.871094 206.417969 157.011719 206.417969 C 153.648438 206.417969 150.914062 209.148438 150.914062 212.5 C 150.914062 212.746094 150.949219 212.984375 150.984375 213.226562 C 151.035156 213.578125 150.875 213.984375 150.5625 214.164062 C 150.253906 214.339844 149.875 214.367188 149.59375 214.144531 C 148.960938 213.636719 148.210938 213.367188 147.429688 213.367188 C 145.746094 213.367188 144.308594 214.566406 144.011719 216.222656 C 143.925781 216.6875 143.492188 216.996094 143.019531 216.925781 C 142.75 216.886719 142.480469 216.839844 142.203125 216.839844 C 139.320312 216.839844 136.976562 219.179688 136.976562 222.050781 C 136.976562 224.925781 139.320312 227.261719 142.203125 227.261719 L 155.269531 227.261719 C 155.75 227.261719 156.140625 227.652344 156.140625 228.132812 C 156.140625 228.609375 155.75 229 155.269531 229 L 142.203125 229 C 138.359375 229 135.234375 225.882812 135.234375 222.050781 C 135.234375 218.21875 138.359375 215.105469 142.203125 215.105469 C 142.304688 215.105469 142.40625 215.109375 142.507812 215.113281 C 143.226562 213.054688 145.183594 211.628906 147.429688 211.628906 C 148.039062 211.628906 148.628906 211.738281 149.191406 211.941406 C 149.476562 207.890625 152.875 204.683594 157.011719 204.683594 C 160.203125 204.683594 163.050781 206.640625 164.246094 209.5 C 165.433594 208.636719 166.863281 208.15625 168.335938 208.15625 C 172.179688 208.15625 175.304688 211.273438 175.304688 215.105469 C 175.304688 215.1875 175.304688 215.269531 175.296875 215.351562 C 178.335938 216.128906 180.53125 218.871094 180.53125 222.050781 C 180.53125 225.882812 177.40625 229 173.5625 229 Z M 173.5625 229 "/>
<path style=" stroke:none;fill-rule:nonzero;fill:rgb(27.839661%,16.859436%,16.079712%);fill-opacity:1;" d="M 163.980469 227.261719 C 163.703125 227.261719 162.515625 227.261719 162.238281 227.261719 C 161.757812 227.261719 161.367188 227.652344 161.367188 228.132812 C 161.367188 228.609375 161.757812 229 162.238281 229 C 162.515625 229 163.703125 229 163.980469 229 C 164.460938 229 164.851562 228.609375 164.851562 228.132812 C 164.851562 227.652344 164.460938 227.261719 163.980469 227.261719 Z M 163.980469 227.261719 "/>
<path style=" stroke:none;fill-rule:nonzero;fill:rgb(100%,100%,100%);fill-opacity:1;" d="M 217.015625 174.757812 C 215.453125 175.464844 213.773438 175.941406 212.007812 176.152344 C 213.808594 175.054688 215.1875 173.316406 215.839844 171.242188 C 214.15625 172.261719 212.289062 173 210.308594 173.398438 C 208.714844 171.671875 206.453125 170.59375 203.941406 170.59375 C 199.128906 170.59375 195.230469 174.570312 195.230469 179.472656 C 195.230469 180.167969 195.308594 180.847656 195.453125 181.496094 C 188.210938 181.125 181.789062 177.589844 177.492188 172.21875 C 176.742188 173.53125 176.3125 175.054688 176.3125 176.683594 C 176.3125 179.765625 177.851562 182.480469 180.1875 184.074219 C 178.757812 184.027344 177.414062 183.628906 176.238281 182.964844 C 176.238281 183 176.238281 183.039062 176.238281 183.074219 C 176.238281 187.378906 179.242188 190.96875 183.226562 191.785156 C 182.496094 191.984375 181.726562 192.09375 180.929688 192.09375 C 180.367188 192.09375 179.820312 192.039062 179.292969 191.9375 C 180.402344 195.460938 183.621094 198.03125 187.433594 198.101562 C 184.449219 200.484375 180.691406 201.90625 176.609375 201.90625 C 175.90625 201.90625 175.210938 201.863281 174.53125 201.78125 C 178.386719 204.296875 182.96875 205.769531 187.890625 205.769531 C 203.921875 205.769531 212.6875 192.238281 212.6875 180.503906 C 212.6875 180.121094 212.679688 179.734375 212.664062 179.355469 C 214.367188 178.101562 215.84375 176.542969 217.015625 174.757812 Z M 217.015625 174.757812 "/>
<path style=" stroke:none;fill-rule:nonzero;fill:rgb(27.839661%,16.859436%,16.079712%);fill-opacity:1;" d="M 187.890625 206.636719 C 182.980469 206.636719 178.195312 205.207031 174.054688 202.507812 C 173.71875 202.289062 173.578125 201.863281 173.714844 201.484375 C 173.851562 201.105469 174.242188 200.859375 174.636719 200.921875 C 178.308594 201.359375 182.015625 200.558594 185.140625 198.648438 C 182.023438 197.8125 179.472656 195.414062 178.460938 192.195312 C 178.371094 191.902344 178.4375 191.582031 178.644531 191.355469 C 178.847656 191.128906 179.15625 191.023438 179.457031 191.085938 C 179.46875 191.085938 179.480469 191.089844 179.492188 191.089844 C 176.976562 189.3125 175.367188 186.347656 175.367188 183.078125 C 175.367188 182.769531 175.53125 182.425781 175.800781 182.273438 C 176.066406 182.113281 176.398438 182.058594 176.667969 182.210938 C 176.898438 182.339844 177.132812 182.457031 177.371094 182.5625 C 176.132812 180.894531 175.4375 178.835938 175.4375 176.683594 C 175.4375 174.964844 175.886719 173.273438 176.734375 171.789062 C 176.875 171.539062 177.132812 171.378906 177.421875 171.355469 C 177.722656 171.332031 177.992188 171.453125 178.171875 171.679688 C 182.21875 176.734375 188.089844 179.929688 194.417969 180.546875 C 194.378906 180.195312 194.359375 179.835938 194.359375 179.472656 C 194.359375 174.097656 198.660156 169.726562 203.941406 169.726562 C 206.421875 169.726562 208.816406 170.710938 210.59375 172.449219 C 212.277344 172.058594 213.890625 171.40625 215.390625 170.503906 C 215.699219 170.316406 216.089844 170.339844 216.375 170.5625 C 216.664062 170.785156 216.777344 171.164062 216.667969 171.507812 C 216.3125 172.636719 215.761719 173.679688 215.042969 174.59375 C 215.589844 174.414062 216.125 174.207031 216.648438 173.96875 C 217.003906 173.808594 217.417969 173.902344 217.671875 174.195312 C 217.921875 174.488281 217.953125 174.910156 217.738281 175.234375 C 216.59375 176.984375 215.183594 178.511719 213.546875 179.773438 C 213.554688 180.019531 213.558594 180.261719 213.558594 180.503906 C 213.558594 193.351562 203.957031 206.636719 187.890625 206.636719 Z M 178.015625 202.722656 C 181.105469 204.152344 184.464844 204.898438 187.890625 204.898438 C 202.871094 204.898438 211.816406 192.496094 211.816406 180.503906 C 211.816406 180.128906 211.808594 179.757812 211.792969 179.386719 C 211.78125 179.097656 211.914062 178.824219 212.148438 178.652344 C 212.996094 178.03125 213.777344 177.332031 214.492188 176.566406 C 213.714844 176.769531 212.917969 176.917969 212.109375 177.015625 C 211.710938 177.078125 211.316406 176.828125 211.183594 176.4375 C 211.050781 176.054688 211.203125 175.625 211.550781 175.414062 C 212.488281 174.839844 213.292969 174.082031 213.917969 173.195312 C 212.808594 173.660156 211.660156 174.015625 210.476562 174.25 C 210.179688 174.316406 209.871094 174.207031 209.664062 173.984375 C 208.1875 172.382812 206.101562 171.460938 203.941406 171.460938 C 199.621094 171.460938 196.101562 175.054688 196.101562 179.472656 C 196.101562 180.097656 196.171875 180.714844 196.304688 181.304688 C 196.367188 181.570312 196.296875 181.847656 196.121094 182.054688 C 195.945312 182.265625 195.6875 182.398438 195.410156 182.363281 C 188.628906 182.015625 182.253906 178.921875 177.703125 173.816406 C 177.359375 174.726562 177.183594 175.699219 177.183594 176.683594 C 177.183594 179.371094 178.488281 181.867188 180.679688 183.359375 C 181 183.578125 181.136719 183.980469 181.015625 184.347656 C 180.894531 184.710938 180.546875 184.96875 180.160156 184.945312 C 179.15625 184.910156 178.160156 184.714844 177.222656 184.371094 C 177.757812 187.640625 180.191406 190.277344 183.402344 190.933594 C 183.796875 191.015625 184.082031 191.351562 184.097656 191.753906 C 184.113281 192.15625 183.847656 192.515625 183.460938 192.621094 C 182.546875 192.875 181.601562 192.992188 180.652344 192.960938 C 181.964844 195.511719 184.550781 197.179688 187.449219 197.234375 C 187.816406 197.242188 188.140625 197.476562 188.257812 197.824219 C 188.371094 198.167969 188.261719 198.550781 187.976562 198.78125 C 185.078125 201.097656 181.65625 202.445312 178.015625 202.722656 Z M 178.015625 202.722656 "/>
</g>
</svg>
