<?xml version="1.0" encoding="UTF-8"?>
<svg xmlns="http://www.w3.org/2000/svg" xmlns:xlink="http://www.w3.org/1999/xlink" width="375pt" height="374.999991pt" viewBox="0 0 375 374.999991" version="1.2">
<defs>
<clipPath id="clip1">
  <path d="M 112.5 114 L 262.5 114 L 262.5 261 L 112.5 261 Z M 112.5 114 "/>
</clipPath>
</defs>
<g id="surface1">
<g clip-path="url(#clip1)" clip-rule="nonzero">
<path style=" stroke:none;fill-rule:nonzero;fill:rgb(0%,0%,0%);fill-opacity:1;" d="M 187.5 114.230469 C 146.078125 114.230469 112.5 147.765625 112.5 189.09375 C 112.5 222.179688 134 250.257812 163.792969 260.175781 C 167.53125 260.851562 170.191406 257.019531 170.191406 254.132812 C 170.191406 252.375 170.238281 250.257812 170.191406 244.039062 C 149.324219 248.546875 142.789062 233.941406 142.789062 233.941406 C 139.363281 225.289062 135.214844 222.808594 135.214844 222.808594 C 128.410156 218.167969 135.710938 218.300781 135.710938 218.300781 C 143.238281 218.796875 147.117188 225.289062 147.117188 225.289062 C 152.882812 235.382812 165.910156 234.394531 170.191406 232.5 C 170.191406 227.902344 170.6875 224.566406 171.949219 222.449219 C 148.378906 218.300781 135.53125 204.691406 135.578125 185.851562 C 135.621094 174.71875 139.453125 166.0625 145.671875 159.664062 C 142.96875 156.238281 141.121094 144.519531 146.664062 137.308594 C 160.59375 137.308594 168.886719 147.359375 168.886719 147.359375 C 168.886719 147.359375 175.421875 144.519531 187.453125 144.519531 C 199.535156 144.519531 206.023438 147.222656 206.023438 147.222656 C 206.023438 147.222656 214.363281 137.308594 228.289062 137.308594 C 233.835938 144.519531 231.984375 156.238281 229.824219 159.4375 C 235.773438 165.703125 239.421875 174.355469 239.421875 185.851562 C 239.421875 204.691406 226.621094 218.300781 203.09375 222.402344 C 204.582031 224.65625 204.808594 227.8125 204.808594 232.5 C 204.808594 242.507812 204.808594 251.65625 204.808594 254.132812 C 204.808594 257.019531 207.421875 260.894531 211.253906 260.175781 C 241.046875 250.214844 262.5 222.179688 262.5 189.09375 C 262.5 147.765625 228.921875 114.230469 187.5 114.230469 Z M 187.5 114.230469 "/>
</g>
</g>
</svg>
