<?xml version="1.0" encoding="UTF-8"?>
<svg xmlns="http://www.w3.org/2000/svg" xmlns:xlink="http://www.w3.org/1999/xlink" width="375pt" height="374.999991pt" viewBox="0 0 375 374.999991" version="1.2">
<defs>
<clipPath id="clip1">
  <path d="M 112.5 112.5 L 262.5 112.5 L 262.5 262.5 L 112.5 262.5 Z M 112.5 112.5 "/>
</clipPath>
</defs>
<g id="surface1">
<g clip-path="url(#clip1)" clip-rule="nonzero">
<path style=" stroke:none;fill-rule:nonzero;fill:rgb(0%,0%,0%);fill-opacity:1;" d="M 187.5 112.5 C 146.082031 112.5 112.5 146.082031 112.5 187.5 C 112.5 228.917969 146.082031 262.5 187.5 262.5 C 228.917969 262.5 262.5 228.917969 262.5 187.5 C 262.5 146.082031 228.917969 112.5 187.5 112.5 Z M 159.351562 146.269531 C 164.613281 146.269531 168.117188 149.773438 168.117188 154.449219 C 168.117188 159.125 164.613281 162.632812 158.769531 162.632812 C 153.507812 162.636719 150 159.125 150 154.449219 C 150 149.773438 153.507812 146.269531 159.351562 146.269531 Z M 168.75 218.75 L 150 218.75 L 150 168.75 L 168.75 168.75 Z M 231.25 218.75 L 213.601562 218.75 L 213.601562 191.425781 C 213.601562 183.867188 208.894531 182.125 207.132812 182.125 C 205.367188 182.125 199.480469 183.289062 199.480469 191.425781 C 199.480469 192.585938 199.480469 218.75 199.480469 218.75 L 181.25 218.75 L 181.25 168.75 L 199.488281 168.75 L 199.488281 175.726562 C 201.835938 171.65625 206.542969 168.75 215.367188 168.75 C 224.195312 168.75 231.25 175.726562 231.25 191.425781 Z M 231.25 218.75 "/>
</g>
</g>
</svg>
