<?xml version="1.0" encoding="UTF-8"?>
<svg xmlns="http://www.w3.org/2000/svg" xmlns:xlink="http://www.w3.org/1999/xlink" width="375pt" height="374.999991pt" viewBox="0 0 375 374.999991" version="1.2">
<defs>
<clipPath id="clip1">
  <path d="M 119 124.78125 L 262.5 124.78125 L 262.5 249.84375 L 119 249.84375 Z M 119 124.78125 "/>
</clipPath>
<clipPath id="clip2">
  <path d="M 203 175 L 262.5 175 L 262.5 207 L 203 207 Z M 203 175 "/>
</clipPath>
<clipPath id="clip3">
  <path d="M 112.5 180 L 146 180 L 146 196 L 112.5 196 Z M 112.5 180 "/>
</clipPath>
</defs>
<g id="surface1">
<g clip-path="url(#clip1)" clip-rule="nonzero">
<path style=" stroke:none;fill-rule:nonzero;fill:rgb(78.039551%,92.939758%,90.19928%);fill-opacity:1;" d="M 255.820312 198.96875 C 257.796875 195.222656 258.929688 190.96875 258.929688 186.445312 C 258.929688 174.945312 251.683594 165.152344 241.507812 161.296875 C 241.507812 161.285156 241.507812 161.273438 241.507812 161.257812 C 241.507812 141.113281 225.128906 124.78125 204.921875 124.78125 C 187.875 124.78125 173.59375 136.421875 169.53125 152.152344 C 166.960938 151.308594 164.222656 150.835938 161.367188 150.835938 C 147.964844 150.835938 136.9375 160.898438 135.425781 173.855469 C 126.359375 175.765625 119.554688 183.785156 119.554688 193.390625 C 119.554688 204.421875 128.523438 213.367188 139.589844 213.367188 C 139.898438 213.367188 140.203125 213.347656 140.507812 213.328125 C 140.5 213.632812 140.460938 213.929688 140.460938 214.234375 C 140.460938 233.902344 156.449219 249.84375 176.175781 249.84375 C 187.390625 249.84375 197.386719 244.683594 203.9375 236.617188 C 207.730469 240.484375 213.003906 242.894531 218.859375 242.894531 C 226.960938 242.894531 233.972656 238.292969 237.441406 231.574219 C 239.273438 232.15625 241.222656 232.472656 243.25 232.472656 C 253.832031 232.472656 262.414062 223.917969 262.414062 213.367188 C 262.414062 207.617188 259.851562 202.472656 255.820312 198.96875 Z M 255.820312 198.96875 "/>
</g>
<path style=" stroke:none;fill-rule:nonzero;fill:rgb(99.21875%,98.81897%,93.728638%);fill-opacity:1;" d="M 238.894531 205.550781 L 238.894531 206.417969 L 244.121094 206.417969 L 244.121094 205.550781 C 244.121094 205.550781 251.511719 205.550781 253.703125 205.550781 C 258.03125 205.550781 261.542969 202.050781 261.542969 197.734375 C 261.542969 193.683594 258.4375 190.390625 254.476562 189.996094 C 254.515625 189.683594 254.574219 189.375 254.574219 189.050781 C 254.574219 184.734375 251.0625 181.234375 246.734375 181.234375 C 244.230469 181.234375 242.023438 182.425781 240.589844 184.25 C 240.347656 179.667969 236.578125 176.023438 231.925781 176.023438 C 227.117188 176.023438 223.214844 179.910156 223.214844 184.707031 C 223.214844 185.480469 223.347656 186.21875 223.539062 186.933594 C 222.421875 185.585938 220.75 184.707031 218.859375 184.707031 C 215.757812 184.707031 213.226562 187.027344 212.839844 190.011719 C 212.523438 189.976562 212.214844 189.917969 211.890625 189.917969 C 207.5625 189.917969 204.050781 193.417969 204.050781 197.734375 C 204.050781 202.050781 207.5625 205.550781 211.890625 205.550781 C 216.21875 205.550781 228.441406 205.550781 228.441406 205.550781 Z M 238.894531 205.550781 "/>
<g clip-path="url(#clip2)" clip-rule="nonzero">
<path style=" stroke:none;fill-rule:nonzero;fill:rgb(27.839661%,16.859436%,16.079712%);fill-opacity:1;" d="M 231.925781 175.152344 C 226.640625 175.152344 222.34375 179.4375 222.34375 184.707031 C 222.34375 184.734375 222.34375 184.761719 222.34375 184.789062 C 221.296875 184.171875 220.097656 183.839844 218.859375 183.839844 C 215.667969 183.839844 212.917969 186.027344 212.136719 189.058594 C 212.054688 189.054688 211.972656 189.050781 211.890625 189.050781 C 207.085938 189.050781 203.179688 192.945312 203.179688 197.734375 C 203.179688 202.523438 207.085938 206.417969 211.890625 206.417969 L 238.894531 206.417969 C 239.375 206.417969 239.765625 206.03125 239.765625 205.550781 C 239.765625 205.070312 239.375 204.683594 238.894531 204.683594 L 211.890625 204.683594 C 208.046875 204.683594 204.921875 201.566406 204.921875 197.734375 C 204.921875 193.902344 208.046875 190.785156 211.890625 190.785156 C 212.09375 190.785156 212.292969 190.816406 212.488281 190.84375 L 212.734375 190.875 C 212.769531 190.878906 212.804688 190.882812 212.84375 190.882812 C 213.269531 190.882812 213.648438 190.5625 213.703125 190.125 C 214.035156 187.53125 216.253906 185.574219 218.859375 185.574219 C 220.402344 185.574219 221.859375 186.273438 222.867188 187.484375 C 223.039062 187.691406 223.289062 187.800781 223.539062 187.800781 C 223.675781 187.800781 223.8125 187.769531 223.9375 187.707031 C 224.300781 187.519531 224.484375 187.105469 224.378906 186.710938 C 224.179688 185.953125 224.085938 185.320312 224.085938 184.707031 C 224.085938 180.398438 227.601562 176.890625 231.925781 176.890625 C 236.074219 176.890625 239.5 180.140625 239.71875 184.296875 C 239.738281 184.65625 239.980469 184.96875 240.328125 185.078125 C 240.414062 185.105469 240.503906 185.117188 240.59375 185.117188 C 240.855469 185.117188 241.109375 185 241.277344 184.785156 C 242.621094 183.078125 244.605469 182.101562 246.734375 182.101562 C 250.578125 182.101562 253.703125 185.21875 253.703125 189.050781 C 253.703125 189.253906 253.671875 189.449219 253.648438 189.644531 L 253.613281 189.890625 C 253.585938 190.125 253.652344 190.355469 253.800781 190.539062 C 253.945312 190.71875 254.160156 190.835938 254.390625 190.859375 C 257.972656 191.214844 260.671875 194.171875 260.671875 197.734375 C 260.671875 201.566406 257.546875 204.683594 253.703125 204.683594 L 244.121094 204.683594 C 243.640625 204.683594 243.25 205.070312 243.25 205.550781 C 243.25 206.03125 243.640625 206.417969 244.121094 206.417969 L 253.703125 206.417969 C 258.507812 206.417969 262.414062 202.523438 262.414062 197.734375 C 262.414062 193.570312 259.472656 190.070312 255.441406 189.261719 C 255.445312 189.191406 255.445312 189.121094 255.445312 189.050781 C 255.445312 184.261719 251.539062 180.363281 246.734375 180.363281 C 244.6875 180.363281 242.738281 181.085938 241.1875 182.386719 C 240.148438 178.210938 236.378906 175.152344 231.925781 175.152344 Z M 231.925781 175.152344 "/>
</g>
<path style=" stroke:none;fill-rule:nonzero;fill:rgb(27.839661%,16.859436%,16.079712%);fill-opacity:1;" d="M 229.3125 187.3125 C 226.867188 187.3125 224.765625 189.046875 224.238281 191.378906 C 223.597656 190.992188 222.867188 190.785156 222.125 190.785156 C 220.03125 190.785156 218.296875 192.34375 218.027344 194.378906 C 217.671875 194.296875 217.335938 194.261719 217.007812 194.261719 C 214.34375 194.261719 212.113281 196.34375 211.925781 199.007812 C 211.90625 199.246094 212.089844 199.453125 212.328125 199.472656 C 212.339844 199.472656 212.347656 199.472656 212.359375 199.472656 C 212.585938 199.472656 212.777344 199.296875 212.792969 199.070312 C 212.949219 196.859375 214.796875 195.128906 217.007812 195.128906 C 217.40625 195.128906 217.828125 195.203125 218.292969 195.351562 C 218.332031 195.363281 218.371094 195.367188 218.410156 195.367188 C 218.503906 195.367188 218.601562 195.332031 218.683594 195.273438 C 218.792969 195.191406 218.859375 195.050781 218.859375 194.910156 C 218.859375 193.117188 220.324219 191.65625 222.125 191.65625 C 222.90625 191.65625 223.667969 191.945312 224.269531 192.476562 C 224.351562 192.546875 224.457031 192.585938 224.558594 192.585938 C 224.613281 192.585938 224.667969 192.574219 224.71875 192.554688 C 224.875 192.492188 224.976562 192.351562 224.988281 192.183594 C 225.171875 189.9375 227.070312 188.179688 229.3125 188.179688 C 229.675781 188.179688 230.054688 188.238281 230.5 188.367188 C 230.539062 188.378906 230.582031 188.382812 230.621094 188.382812 C 230.8125 188.382812 230.984375 188.257812 231.039062 188.066406 C 231.105469 187.835938 230.972656 187.597656 230.738281 187.53125 C 230.214844 187.382812 229.757812 187.3125 229.3125 187.3125 Z M 253.5 189.917969 C 251.1875 189.917969 249.128906 191.476562 248.492188 193.707031 C 248.425781 193.9375 248.558594 194.179688 248.792969 194.246094 C 248.832031 194.253906 248.875 194.261719 248.910156 194.261719 C 249.101562 194.261719 249.277344 194.136719 249.332031 193.945312 C 249.863281 192.085938 251.574219 190.785156 253.5 190.785156 C 253.703125 190.785156 253.898438 190.8125 254.09375 190.835938 C 254.117188 190.839844 254.136719 190.84375 254.15625 190.84375 C 254.367188 190.84375 254.554688 190.683594 254.585938 190.464844 C 254.617188 190.226562 254.449219 190.007812 254.210938 189.976562 C 253.976562 189.945312 253.742188 189.917969 253.5 189.917969 Z M 253.5 189.917969 "/>
<g clip-path="url(#clip3)" clip-rule="nonzero">
<path style=" stroke:none;fill-rule:nonzero;fill:rgb(100%,100%,100%);fill-opacity:1;" d="M 130.878906 189.050781 L 113.457031 189.050781 C 112.976562 189.050781 112.585938 188.660156 112.585938 188.179688 C 112.585938 187.703125 112.976562 187.3125 113.457031 187.3125 L 130.878906 187.3125 C 131.359375 187.3125 131.75 187.703125 131.75 188.179688 C 131.75 188.660156 131.363281 189.050781 130.878906 189.050781 Z M 136.105469 189.050781 L 134.363281 189.050781 C 133.882812 189.050781 133.492188 188.660156 133.492188 188.179688 C 133.492188 187.703125 133.882812 187.3125 134.363281 187.3125 L 136.105469 187.3125 C 136.585938 187.3125 136.976562 187.703125 136.976562 188.179688 C 136.976562 188.660156 136.589844 189.050781 136.105469 189.050781 Z M 144.800781 192.523438 L 129.136719 192.523438 C 128.65625 192.523438 128.265625 192.132812 128.265625 191.65625 C 128.265625 191.175781 128.65625 190.785156 129.136719 190.785156 L 144.800781 190.785156 C 145.28125 190.785156 145.671875 191.175781 145.671875 191.65625 C 145.671875 192.132812 145.28125 192.523438 144.800781 192.523438 Z M 125.652344 192.523438 L 123.910156 192.523438 C 123.429688 192.523438 123.039062 192.132812 123.039062 191.65625 C 123.039062 191.175781 123.429688 190.785156 123.910156 190.785156 L 125.652344 190.785156 C 126.132812 190.785156 126.523438 191.175781 126.523438 191.65625 C 126.523438 192.132812 126.136719 192.523438 125.652344 192.523438 Z M 120.425781 192.523438 L 116.941406 192.523438 C 116.460938 192.523438 116.070312 192.132812 116.070312 191.65625 C 116.070312 191.175781 116.460938 190.785156 116.941406 190.785156 L 120.425781 190.785156 C 120.90625 190.785156 121.296875 191.175781 121.296875 191.65625 C 121.296875 192.132812 120.910156 192.523438 120.425781 192.523438 Z M 130.878906 195.996094 L 127.394531 195.996094 C 126.914062 195.996094 126.523438 195.609375 126.523438 195.128906 C 126.523438 194.648438 126.914062 194.261719 127.394531 194.261719 L 130.878906 194.261719 C 131.359375 194.261719 131.75 194.648438 131.75 195.128906 C 131.75 195.609375 131.359375 195.996094 130.878906 195.996094 Z M 136.105469 180.363281 C 135.796875 180.363281 134.671875 180.363281 134.363281 180.363281 C 133.882812 180.363281 133.492188 180.753906 133.492188 181.234375 C 133.492188 181.710938 133.882812 182.101562 134.363281 182.101562 C 134.671875 182.101562 135.796875 182.101562 136.105469 182.101562 C 136.585938 182.101562 136.976562 181.710938 136.976562 181.234375 C 136.976562 180.753906 136.585938 180.363281 136.105469 180.363281 Z M 136.105469 183.839844 C 135.796875 183.839844 127.703125 183.839844 127.394531 183.839844 C 126.914062 183.839844 126.523438 184.226562 126.523438 184.707031 C 126.523438 185.1875 126.914062 185.574219 127.394531 185.574219 C 127.703125 185.574219 135.796875 185.574219 136.105469 185.574219 C 136.585938 185.574219 136.976562 185.1875 136.976562 184.707031 C 136.976562 184.226562 136.585938 183.839844 136.105469 183.839844 Z M 144.816406 187.3125 C 144.507812 187.3125 139.898438 187.3125 139.589844 187.3125 C 139.109375 187.3125 138.71875 187.703125 138.71875 188.179688 C 138.71875 188.660156 139.109375 189.050781 139.589844 189.050781 C 139.898438 189.050781 144.507812 189.050781 144.816406 189.050781 C 145.296875 189.050781 145.6875 188.660156 145.6875 188.179688 C 145.6875 187.703125 145.296875 187.3125 144.816406 187.3125 Z M 144.816406 187.3125 "/>
</g>
<path style=" stroke:none;fill-rule:nonzero;fill:rgb(100%,100%,100%);fill-opacity:1;" d="M 230.183594 142.152344 L 212.761719 142.152344 C 212.28125 142.152344 211.890625 141.761719 211.890625 141.28125 C 211.890625 140.804688 212.28125 140.414062 212.761719 140.414062 L 230.183594 140.414062 C 230.664062 140.414062 231.054688 140.804688 231.054688 141.28125 C 231.054688 141.761719 230.664062 142.152344 230.183594 142.152344 Z M 237.152344 142.152344 L 233.667969 142.152344 C 233.1875 142.152344 232.796875 141.761719 232.796875 141.28125 C 232.796875 140.804688 233.1875 140.414062 233.667969 140.414062 L 237.152344 140.414062 C 237.632812 140.414062 238.023438 140.804688 238.023438 141.28125 C 238.023438 141.761719 237.632812 142.152344 237.152344 142.152344 Z M 245.863281 145.625 L 228.441406 145.625 C 227.960938 145.625 227.570312 145.234375 227.570312 144.757812 C 227.570312 144.277344 227.960938 143.886719 228.441406 143.886719 L 245.863281 143.886719 C 246.34375 143.886719 246.734375 144.277344 246.734375 144.757812 C 246.734375 145.234375 246.347656 145.625 245.863281 145.625 Z M 224.957031 145.625 L 223.214844 145.625 C 222.734375 145.625 222.34375 145.234375 222.34375 144.757812 C 222.34375 144.277344 222.734375 143.886719 223.214844 143.886719 L 224.957031 143.886719 C 225.4375 143.886719 225.828125 144.277344 225.828125 144.757812 C 225.828125 145.234375 225.4375 145.625 224.957031 145.625 Z M 219.679688 145.625 L 216.246094 145.625 C 215.765625 145.625 215.375 145.234375 215.375 144.757812 C 215.375 144.277344 215.765625 143.886719 216.246094 143.886719 L 219.679688 143.886719 C 220.160156 143.886719 220.550781 144.277344 220.550781 144.757812 C 220.550781 145.234375 220.160156 145.625 219.679688 145.625 Z M 235.410156 138.675781 L 226.699219 138.675781 C 226.21875 138.675781 225.828125 138.289062 225.828125 137.808594 C 225.828125 137.328125 226.21875 136.941406 226.699219 136.941406 L 235.410156 136.941406 C 235.890625 136.941406 236.28125 137.328125 236.28125 137.808594 C 236.28125 138.289062 235.894531 138.675781 235.410156 138.675781 Z M 230.183594 149.097656 L 226.699219 149.097656 C 226.21875 149.097656 225.828125 148.710938 225.828125 148.230469 C 225.828125 147.75 226.21875 147.363281 226.699219 147.363281 L 230.183594 147.363281 C 230.664062 147.363281 231.054688 147.75 231.054688 148.230469 C 231.054688 148.710938 230.664062 149.097656 230.183594 149.097656 Z M 230.183594 149.097656 "/>
<path style=" stroke:none;fill-rule:nonzero;fill:rgb(63.919067%,63.919067%,80.389404%);fill-opacity:1;" d="M 194.46875 146.929688 C 193.140625 146.929688 191.820312 146.992188 190.5 147.121094 C 189.179688 147.25 187.867188 147.445312 186.566406 147.703125 C 185.265625 147.960938 183.980469 148.28125 182.710938 148.667969 C 181.441406 149.050781 180.195312 149.496094 178.96875 150 C 177.742188 150.507812 176.542969 151.074219 175.375 151.695312 C 174.203125 152.320312 173.066406 153 171.964844 153.734375 C 170.863281 154.46875 169.796875 155.253906 168.773438 156.09375 C 167.746094 156.933594 166.765625 157.820312 165.828125 158.757812 C 164.890625 159.691406 164 160.671875 163.15625 161.691406 C 162.316406 162.714844 161.527344 163.777344 160.789062 164.875 C 160.050781 165.976562 159.371094 167.109375 158.746094 168.273438 C 158.121094 169.441406 157.554688 170.636719 157.046875 171.859375 C 156.539062 173.078125 156.09375 174.324219 155.707031 175.589844 C 155.320312 176.855469 155 178.136719 154.742188 179.433594 C 154.480469 180.730469 154.289062 182.039062 154.15625 183.355469 C 154.027344 184.671875 153.960938 185.988281 153.960938 187.3125 C 153.960938 188.636719 154.027344 189.953125 154.15625 191.269531 C 154.289062 192.585938 154.480469 193.894531 154.742188 195.191406 C 155 196.488281 155.320312 197.769531 155.707031 199.035156 C 156.09375 200.300781 156.539062 201.546875 157.046875 202.765625 C 157.554688 203.988281 158.121094 205.183594 158.746094 206.351562 C 159.371094 207.515625 160.050781 208.648438 160.789062 209.75 C 161.527344 210.847656 162.316406 211.910156 163.15625 212.933594 C 164 213.953125 164.890625 214.933594 165.828125 215.867188 C 166.765625 216.804688 167.746094 217.691406 168.773438 218.53125 C 169.796875 219.371094 170.863281 220.15625 171.964844 220.890625 C 173.066406 221.625 174.203125 222.304688 175.375 222.929688 C 176.542969 223.550781 177.742188 224.117188 178.96875 224.625 C 180.195312 225.128906 181.441406 225.574219 182.710938 225.957031 C 183.980469 226.34375 185.265625 226.664062 186.566406 226.921875 C 187.867188 227.179688 189.179688 227.375 190.5 227.503906 C 191.820312 227.632812 193.140625 227.699219 194.46875 227.699219 C 195.796875 227.699219 197.117188 227.632812 198.4375 227.503906 C 199.757812 227.375 201.070312 227.179688 202.371094 226.921875 C 203.671875 226.664062 204.957031 226.34375 206.226562 225.957031 C 207.496094 225.574219 208.742188 225.128906 209.96875 224.625 C 211.195312 224.117188 212.394531 223.550781 213.5625 222.929688 C 214.734375 222.304688 215.871094 221.625 216.972656 220.890625 C 218.074219 220.15625 219.140625 219.371094 220.164062 218.53125 C 221.191406 217.691406 222.171875 216.804688 223.109375 215.867188 C 224.046875 214.933594 224.9375 213.953125 225.78125 212.933594 C 226.621094 211.910156 227.410156 210.847656 228.148438 209.75 C 228.886719 208.648438 229.566406 207.515625 230.191406 206.351562 C 230.816406 205.183594 231.382812 203.988281 231.890625 202.765625 C 232.398438 201.546875 232.84375 200.300781 233.230469 199.035156 C 233.617188 197.769531 233.9375 196.488281 234.195312 195.191406 C 234.457031 193.894531 234.648438 192.585938 234.78125 191.269531 C 234.910156 189.953125 234.972656 188.636719 234.972656 187.3125 C 234.972656 185.988281 234.910156 184.671875 234.78125 183.355469 C 234.648438 182.039062 234.457031 180.730469 234.195312 179.433594 C 233.9375 178.136719 233.617188 176.855469 233.230469 175.589844 C 232.84375 174.324219 232.398438 173.078125 231.890625 171.859375 C 231.382812 170.636719 230.816406 169.441406 230.191406 168.273438 C 229.566406 167.109375 228.886719 165.976562 228.148438 164.875 C 227.410156 163.777344 226.621094 162.714844 225.78125 161.691406 C 224.9375 160.671875 224.046875 159.691406 223.109375 158.757812 C 222.171875 157.820312 221.191406 156.933594 220.164062 156.09375 C 219.140625 155.253906 218.074219 154.46875 216.972656 153.734375 C 215.871094 153 214.734375 152.320312 213.5625 151.695312 C 212.394531 151.074219 211.195312 150.507812 209.96875 150 C 208.742188 149.496094 207.496094 149.050781 206.226562 148.667969 C 204.957031 148.28125 203.671875 147.960938 202.371094 147.703125 C 201.070312 147.445312 199.757812 147.25 198.4375 147.121094 C 197.117188 146.992188 195.796875 146.929688 194.46875 146.929688 Z M 194.46875 146.929688 "/>
<path style=" stroke:none;fill-rule:nonzero;fill:rgb(27.839661%,16.859436%,16.079712%);fill-opacity:1;" d="M 194.46875 228.914062 C 171.460938 228.914062 152.742188 210.25 152.742188 187.3125 C 152.742188 164.375 171.460938 145.710938 194.46875 145.710938 C 217.476562 145.710938 236.195312 164.375 236.195312 187.3125 C 236.195312 210.25 217.476562 228.914062 194.46875 228.914062 Z M 194.46875 148.144531 C 172.804688 148.144531 155.183594 165.714844 155.183594 187.3125 C 155.183594 208.910156 172.804688 226.480469 194.46875 226.480469 C 216.132812 226.480469 233.753906 208.910156 233.753906 187.3125 C 233.753906 165.714844 216.132812 148.144531 194.46875 148.144531 Z M 194.46875 148.144531 "/>
<path style=" stroke:none;fill-rule:nonzero;fill:rgb(33.729553%,37.249756%,63.139343%);fill-opacity:1;" d="M 194.46875 153.441406 C 193.355469 153.441406 192.246094 153.496094 191.140625 153.605469 C 190.03125 153.714844 188.933594 153.875 187.839844 154.09375 C 186.75 154.308594 185.671875 154.578125 184.605469 154.898438 C 183.542969 155.222656 182.496094 155.59375 181.46875 156.019531 C 180.441406 156.445312 179.433594 156.917969 178.453125 157.441406 C 177.472656 157.964844 176.519531 158.535156 175.59375 159.148438 C 174.667969 159.765625 173.777344 160.425781 172.917969 161.128906 C 172.054688 161.832031 171.234375 162.578125 170.445312 163.363281 C 169.660156 164.148438 168.914062 164.96875 168.207031 165.824219 C 167.5 166.683594 166.839844 167.574219 166.222656 168.496094 C 165.601562 169.417969 165.03125 170.367188 164.507812 171.347656 C 163.984375 172.324219 163.507812 173.324219 163.082031 174.351562 C 162.65625 175.375 162.28125 176.417969 161.957031 177.480469 C 161.636719 178.542969 161.367188 179.617188 161.148438 180.703125 C 160.933594 181.792969 160.769531 182.890625 160.660156 183.992188 C 160.550781 185.097656 160.496094 186.203125 160.496094 187.3125 C 160.496094 188.421875 160.550781 189.527344 160.660156 190.632812 C 160.769531 191.738281 160.933594 192.832031 161.148438 193.921875 C 161.367188 195.007812 161.636719 196.082031 161.957031 197.144531 C 162.28125 198.207031 162.65625 199.25 163.082031 200.273438 C 163.507812 201.300781 163.984375 202.300781 164.507812 203.28125 C 165.03125 204.257812 165.601562 205.207031 166.222656 206.128906 C 166.839844 207.054688 167.5 207.941406 168.207031 208.800781 C 168.914062 209.65625 169.660156 210.480469 170.445312 211.261719 C 171.234375 212.046875 172.054688 212.792969 172.917969 213.496094 C 173.777344 214.199219 174.667969 214.859375 175.59375 215.476562 C 176.519531 216.089844 177.472656 216.660156 178.453125 217.183594 C 179.433594 217.707031 180.441406 218.179688 181.46875 218.605469 C 182.496094 219.03125 183.542969 219.402344 184.605469 219.726562 C 185.671875 220.046875 186.75 220.316406 187.839844 220.53125 C 188.933594 220.75 190.03125 220.910156 191.140625 221.019531 C 192.246094 221.128906 193.355469 221.183594 194.46875 221.183594 C 195.582031 221.183594 196.691406 221.128906 197.796875 221.019531 C 198.90625 220.910156 200.003906 220.75 201.097656 220.53125 C 202.1875 220.316406 203.265625 220.046875 204.332031 219.726562 C 205.394531 219.402344 206.441406 219.03125 207.46875 218.605469 C 208.496094 218.179688 209.503906 217.707031 210.484375 217.183594 C 211.464844 216.660156 212.417969 216.089844 213.34375 215.476562 C 214.269531 214.859375 215.160156 214.199219 216.019531 213.496094 C 216.878906 212.792969 217.703125 212.046875 218.492188 211.261719 C 219.277344 210.480469 220.023438 209.65625 220.730469 208.800781 C 221.4375 207.941406 222.097656 207.054688 222.714844 206.128906 C 223.335938 205.207031 223.90625 204.257812 224.429688 203.28125 C 224.953125 202.300781 225.429688 201.300781 225.855469 200.273438 C 226.28125 199.25 226.65625 198.207031 226.980469 197.144531 C 227.300781 196.082031 227.570312 195.007812 227.789062 193.921875 C 228.003906 192.832031 228.167969 191.738281 228.277344 190.632812 C 228.386719 189.527344 228.441406 188.421875 228.441406 187.3125 C 228.441406 186.203125 228.386719 185.097656 228.277344 183.992188 C 228.167969 182.890625 228.003906 181.792969 227.789062 180.703125 C 227.570312 179.617188 227.300781 178.542969 226.980469 177.480469 C 226.65625 176.417969 226.28125 175.375 225.855469 174.351562 C 225.429688 173.324219 224.953125 172.324219 224.429688 171.347656 C 223.90625 170.367188 223.335938 169.417969 222.714844 168.496094 C 222.097656 167.574219 221.4375 166.683594 220.730469 165.824219 C 220.023438 164.96875 219.277344 164.148438 218.492188 163.363281 C 217.703125 162.578125 216.878906 161.832031 216.019531 161.128906 C 215.160156 160.425781 214.269531 159.765625 213.34375 159.148438 C 212.417969 158.535156 211.464844 157.964844 210.484375 157.441406 C 209.503906 156.917969 208.496094 156.445312 207.46875 156.019531 C 206.441406 155.59375 205.394531 155.222656 204.332031 154.898438 C 203.265625 154.578125 202.1875 154.308594 201.097656 154.09375 C 200.003906 153.875 198.90625 153.714844 197.796875 153.605469 C 196.691406 153.496094 195.582031 153.441406 194.46875 153.441406 Z M 194.46875 153.441406 "/>
<path style=" stroke:none;fill-rule:nonzero;fill:rgb(27.839661%,16.859436%,16.079712%);fill-opacity:1;" d="M 226.914062 178.605469 C 226.539062 178.605469 226.195312 178.367188 226.082031 177.992188 C 225.933594 177.515625 225.777344 177.039062 225.609375 176.574219 C 224.957031 174.753906 224.128906 172.980469 223.15625 171.300781 C 222.914062 170.886719 223.054688 170.355469 223.472656 170.113281 C 223.890625 169.867188 224.421875 170.015625 224.664062 170.433594 C 225.6875 172.203125 226.558594 174.070312 227.246094 175.984375 C 227.425781 176.476562 227.589844 176.976562 227.746094 177.480469 C 227.886719 177.941406 227.628906 178.425781 227.167969 178.566406 C 227.085938 178.59375 226.996094 178.605469 226.914062 178.605469 Z M 226.914062 178.605469 "/>
<path style=" stroke:none;fill-rule:nonzero;fill:rgb(27.839661%,16.859436%,16.079712%);fill-opacity:1;" d="M 194.46875 222.113281 C 175.222656 222.113281 159.5625 206.546875 159.5625 187.414062 C 159.5625 168.285156 175.222656 152.71875 194.46875 152.71875 C 204.457031 152.71875 213.988281 156.988281 220.613281 164.425781 C 221.113281 164.988281 221.597656 165.566406 222.0625 166.164062 C 222.355469 166.542969 222.289062 167.085938 221.910156 167.378906 C 221.53125 167.679688 220.984375 167.605469 220.6875 167.226562 C 220.246094 166.664062 219.789062 166.113281 219.3125 165.578125 C 213.015625 158.511719 203.960938 154.457031 194.46875 154.457031 C 176.183594 154.457031 161.308594 169.242188 161.308594 187.414062 C 161.308594 205.589844 176.183594 220.375 194.46875 220.375 C 212.753906 220.375 227.632812 205.589844 227.632812 187.414062 C 227.632812 185.757812 227.503906 184.09375 227.261719 182.472656 C 227.1875 181.996094 227.515625 181.554688 227.992188 181.484375 C 228.46875 181.410156 228.910156 181.738281 228.984375 182.210938 C 229.242188 183.917969 229.375 185.667969 229.375 187.414062 C 229.375 206.546875 213.714844 222.113281 194.46875 222.113281 Z M 194.46875 222.113281 "/>
<path style=" stroke:none;fill-rule:nonzero;fill:rgb(99.21875%,98.81897%,93.728638%);fill-opacity:1;" d="M 167.464844 228.132812 C 167.464844 228.132812 170.195312 228.132812 173.5625 228.132812 C 176.929688 228.132812 179.660156 225.410156 179.660156 222.050781 C 179.660156 218.957031 177.335938 216.433594 174.335938 216.050781 C 174.386719 215.738281 174.433594 215.429688 174.433594 215.105469 C 174.433594 211.746094 171.703125 209.023438 168.335938 209.023438 C 166.539062 209.023438 164.9375 209.816406 163.824219 211.046875 C 163.15625 207.90625 160.363281 205.550781 157.011719 205.550781 C 153.164062 205.550781 150.042969 208.660156 150.042969 212.5 C 150.042969 212.832031 150.09375 213.148438 150.140625 213.46875 C 149.394531 212.871094 148.460938 212.5 147.429688 212.5 C 145.289062 212.5 143.519531 214.039062 143.152344 216.070312 C 142.839844 216.019531 142.527344 215.972656 142.203125 215.972656 C 138.835938 215.972656 136.105469 218.695312 136.105469 222.050781 C 136.105469 225.410156 138.835938 228.132812 142.203125 228.132812 C 145.570312 228.132812 155.269531 228.132812 155.269531 228.132812 L 155.269531 229 L 167.464844 229 Z M 167.464844 228.132812 "/>
<path style=" stroke:none;fill-rule:nonzero;fill:rgb(27.839661%,16.859436%,16.079712%);fill-opacity:1;" d="M 170.511719 220.316406 C 170.273438 220.316406 170.078125 220.121094 170.078125 219.882812 C 170.078125 217.757812 171.8125 216.027344 173.941406 216.027344 C 174 216.042969 175.226562 216.027344 176.109375 216.265625 C 176.339844 216.328125 176.480469 216.566406 176.417969 216.796875 C 176.351562 217.027344 176.113281 217.167969 175.882812 217.101562 C 175.109375 216.894531 173.964844 216.894531 173.945312 216.898438 C 172.292969 216.898438 170.949219 218.234375 170.949219 219.882812 C 170.949219 220.121094 170.753906 220.316406 170.511719 220.316406 Z M 158.753906 227.261719 C 158.511719 227.261719 158.308594 227.347656 158.136719 227.519531 C 157.96875 227.6875 157.882812 227.890625 157.882812 228.132812 C 157.882812 228.371094 157.96875 228.578125 158.136719 228.746094 C 158.308594 228.914062 158.511719 229 158.753906 229 C 158.996094 229 159.199219 228.914062 159.371094 228.746094 C 159.539062 228.578125 159.625 228.371094 159.625 228.132812 C 159.625 227.890625 159.539062 227.6875 159.371094 227.519531 C 159.199219 227.347656 158.996094 227.261719 158.753906 227.261719 Z M 158.753906 227.261719 "/>
<path style=" stroke:none;fill-rule:nonzero;fill:rgb(27.839661%,16.859436%,16.079712%);fill-opacity:1;" d="M 173.5625 229 L 167.464844 229 C 166.984375 229 166.59375 228.609375 166.59375 228.132812 C 166.59375 227.652344 166.984375 227.261719 167.464844 227.261719 L 173.5625 227.261719 C 176.445312 227.261719 178.789062 224.925781 178.789062 222.050781 C 178.789062 219.453125 176.828125 217.246094 174.226562 216.914062 C 173.996094 216.882812 173.785156 216.757812 173.644531 216.570312 C 173.5 216.382812 173.441406 216.148438 173.480469 215.917969 C 173.519531 215.648438 173.5625 215.382812 173.5625 215.105469 C 173.5625 212.230469 171.21875 209.894531 168.335938 209.894531 C 166.855469 209.894531 165.480469 210.511719 164.46875 211.628906 C 164.253906 211.871094 163.910156 211.972656 163.597656 211.886719 C 163.28125 211.800781 163.039062 211.546875 162.972656 211.230469 C 162.378906 208.441406 159.871094 206.417969 157.011719 206.417969 C 153.648438 206.417969 150.914062 209.148438 150.914062 212.5 C 150.914062 212.746094 150.949219 212.984375 150.984375 213.226562 C 151.035156 213.578125 150.875 213.984375 150.5625 214.164062 C 150.253906 214.339844 149.875 214.367188 149.59375 214.144531 C 148.960938 213.636719 148.210938 213.367188 147.429688 213.367188 C 145.746094 213.367188 144.308594 214.566406 144.011719 216.222656 C 143.925781 216.6875 143.492188 216.996094 143.019531 216.925781 C 142.75 216.886719 142.480469 216.839844 142.203125 216.839844 C 139.320312 216.839844 136.976562 219.179688 136.976562 222.050781 C 136.976562 224.925781 139.320312 227.261719 142.203125 227.261719 L 155.269531 227.261719 C 155.75 227.261719 156.140625 227.652344 156.140625 228.132812 C 156.140625 228.609375 155.75 229 155.269531 229 L 142.203125 229 C 138.359375 229 135.234375 225.882812 135.234375 222.050781 C 135.234375 218.21875 138.359375 215.105469 142.203125 215.105469 C 142.304688 215.105469 142.40625 215.109375 142.507812 215.113281 C 143.226562 213.054688 145.183594 211.628906 147.429688 211.628906 C 148.039062 211.628906 148.628906 211.738281 149.191406 211.941406 C 149.476562 207.890625 152.875 204.683594 157.011719 204.683594 C 160.203125 204.683594 163.050781 206.640625 164.246094 209.5 C 165.433594 208.636719 166.863281 208.15625 168.335938 208.15625 C 172.179688 208.15625 175.304688 211.273438 175.304688 215.105469 C 175.304688 215.1875 175.304688 215.269531 175.296875 215.351562 C 178.335938 216.128906 180.53125 218.871094 180.53125 222.050781 C 180.53125 225.882812 177.40625 229 173.5625 229 Z M 173.5625 229 "/>
<path style=" stroke:none;fill-rule:nonzero;fill:rgb(27.839661%,16.859436%,16.079712%);fill-opacity:1;" d="M 163.980469 227.261719 C 163.703125 227.261719 162.515625 227.261719 162.238281 227.261719 C 161.757812 227.261719 161.367188 227.652344 161.367188 228.132812 C 161.367188 228.609375 161.757812 229 162.238281 229 C 162.515625 229 163.703125 229 163.980469 229 C 164.460938 229 164.851562 228.609375 164.851562 228.132812 C 164.851562 227.652344 164.460938 227.261719 163.980469 227.261719 Z M 163.980469 227.261719 "/>
<path style=" stroke:none;fill-rule:nonzero;fill:rgb(99.609375%,99.21875%,93.728638%);fill-opacity:1;" d="M 214.574219 173.121094 C 215.070312 170.367188 214.773438 167.042969 213.660156 163.710938 C 208.050781 163.710938 203.726562 167.515625 202.988281 168.207031 L 186.9375 168.207031 C 186.199219 167.519531 181.878906 163.710938 176.269531 163.710938 C 175.265625 166.714844 174.925781 169.703125 175.226562 172.28125 C 172.070312 175.140625 170.078125 179.25 170.078125 183.839844 C 170.078125 192.472656 177.097656 199.472656 185.757812 199.472656 L 188.953125 199.472656 C 186.445312 200.617188 184.613281 202.945312 184.152344 205.75 C 181.332031 206.039062 177.917969 205.777344 176.269531 203.308594 C 173.183594 198.695312 171.644531 198.695312 170.101562 198.695312 C 168.558594 198.695312 168.558594 200.230469 170.101562 201.769531 C 171.644531 203.308594 171.644531 203.308594 173.183594 206.382812 C 174.453125 208.914062 177.734375 211.78125 184.015625 211.003906 L 184.015625 216.789062 C 184.015625 217.921875 184.046875 218.75 184.453125 219.734375 C 188.226562 221.039062 195.421875 222.015625 204.34375 219.789062 C 204.703125 218.855469 204.921875 217.851562 204.921875 216.789062 L 204.921875 207.105469 C 204.921875 203.707031 202.890625 200.796875 199.984375 199.46875 L 203.179688 199.46875 C 211.839844 199.46875 218.859375 192.472656 218.859375 183.835938 C 218.859375 179.683594 217.222656 175.917969 214.574219 173.121094 Z M 214.574219 173.121094 "/>
<path style=" stroke:none;fill-rule:nonzero;fill:rgb(27.839661%,16.859436%,16.079712%);fill-opacity:1;" d="M 193.945312 221.984375 C 188.875 221.984375 185.445312 221 184.167969 220.558594 C 183.933594 220.476562 183.742188 220.300781 183.644531 220.070312 C 183.179688 218.941406 183.144531 218 183.144531 216.789062 L 183.144531 211.960938 C 175.878906 212.476562 173.097656 208.15625 172.402344 206.773438 C 170.925781 203.824219 170.925781 203.824219 169.484375 202.386719 C 168.285156 201.191406 167.808594 199.898438 168.210938 198.929688 C 168.503906 198.230469 169.191406 197.828125 170.097656 197.828125 C 172.175781 197.828125 173.886719 198.1875 176.992188 202.828125 C 178.304688 204.792969 181.097656 205.082031 183.425781 204.941406 C 183.855469 203.164062 184.792969 201.570312 186.109375 200.34375 L 185.757812 200.34375 C 176.632812 200.34375 169.207031 192.941406 169.207031 183.84375 C 169.207031 179.363281 171.0625 175.054688 174.316406 171.941406 C 174.078125 169.289062 174.464844 166.359375 175.441406 163.4375 C 175.5625 163.082031 175.894531 162.84375 176.269531 162.84375 C 181.722656 162.84375 185.988281 166.203125 187.273438 167.339844 L 202.652344 167.339844 C 203.941406 166.203125 208.207031 162.84375 213.660156 162.84375 C 214.035156 162.84375 214.367188 163.082031 214.484375 163.4375 C 215.570312 166.679688 215.925781 170 215.503906 172.847656 C 218.230469 175.882812 219.730469 179.765625 219.730469 183.839844 C 219.730469 192.9375 212.304688 200.339844 203.179688 200.339844 L 202.828125 200.339844 C 204.683594 202.066406 205.792969 204.507812 205.792969 207.105469 L 205.792969 216.789062 C 205.792969 217.890625 205.578125 219.003906 205.15625 220.101562 C 205.054688 220.363281 204.832031 220.5625 204.554688 220.632812 C 200.515625 221.640625 196.941406 221.984375 193.945312 221.984375 Z M 185.125 219.046875 C 187.457031 219.78125 194.128906 221.34375 203.679688 219.058594 C 203.925781 218.296875 204.050781 217.539062 204.050781 216.789062 L 204.050781 207.105469 C 204.050781 204.175781 202.3125 201.488281 199.621094 200.261719 C 199.246094 200.089844 199.042969 199.6875 199.128906 199.289062 C 199.21875 198.890625 199.570312 198.601562 199.984375 198.601562 L 203.179688 198.601562 C 211.34375 198.601562 217.988281 191.980469 217.988281 183.839844 C 217.988281 180.070312 216.550781 176.476562 213.9375 173.71875 C 213.75 173.515625 213.667969 173.238281 213.714844 172.96875 C 214.164062 170.484375 213.917969 167.53125 213.027344 164.597656 C 208.082031 164.863281 204.316406 168.15625 203.582031 168.839844 C 203.421875 168.988281 203.210938 169.074219 202.988281 169.074219 L 186.933594 169.074219 C 186.714844 169.074219 186.5 168.988281 186.339844 168.839844 C 185.609375 168.15625 181.839844 164.863281 176.898438 164.597656 C 176.097656 167.234375 175.816406 169.84375 176.09375 172.179688 C 176.125 172.457031 176.019531 172.734375 175.8125 172.921875 C 172.722656 175.722656 170.949219 179.703125 170.949219 183.839844 C 170.949219 191.980469 177.59375 198.601562 185.757812 198.601562 L 188.953125 198.601562 C 189.363281 198.601562 189.71875 198.886719 189.804688 199.289062 C 189.890625 199.683594 189.691406 200.089844 189.316406 200.261719 C 187.027344 201.308594 185.417969 203.414062 185.011719 205.890625 C 184.949219 206.28125 184.632812 206.578125 184.242188 206.617188 C 180.066406 207.039062 177.058594 206.058594 175.542969 203.789062 C 172.714844 199.5625 171.445312 199.5625 170.097656 199.5625 C 169.878906 199.5625 169.804688 199.613281 169.804688 199.613281 C 169.773438 199.714844 169.898438 200.339844 170.714844 201.15625 C 172.359375 202.792969 172.417969 202.914062 173.964844 205.992188 C 174.5625 207.183594 177.046875 211.003906 183.910156 210.144531 C 184.15625 210.109375 184.40625 210.1875 184.59375 210.355469 C 184.78125 210.519531 184.886719 210.753906 184.886719 211.003906 L 184.886719 216.789062 C 184.886719 217.703125 184.902344 218.351562 185.125 219.046875 Z M 185.125 219.046875 "/>
<path style=" stroke:none;fill-rule:nonzero;fill:rgb(99.609375%,99.21875%,93.728638%);fill-opacity:1;" d="M 213.804688 188.882812 C 212.320312 192.164062 209.0625 194.886719 203.324219 195.347656 "/>
<path style=" stroke:none;fill-rule:nonzero;fill:rgb(27.839661%,16.859436%,16.079712%);fill-opacity:1;" d="M 203.324219 195.78125 C 203.097656 195.78125 202.910156 195.605469 202.890625 195.382812 C 202.871094 195.144531 203.050781 194.933594 203.289062 194.914062 C 209.554688 194.414062 212.246094 191.261719 213.40625 188.707031 C 213.503906 188.488281 213.761719 188.390625 213.980469 188.492188 C 214.199219 188.589844 214.296875 188.84375 214.199219 189.0625 C 212.425781 192.980469 208.578125 195.363281 203.359375 195.777344 C 203.347656 195.78125 203.335938 195.78125 203.324219 195.78125 Z M 203.324219 195.78125 "/>
<path style=" stroke:none;fill-rule:nonzero;fill:rgb(99.609375%,99.21875%,93.728638%);fill-opacity:1;" d="M 214.664062 182.386719 C 214.847656 183.625 214.84375 184.941406 214.617188 186.238281 "/>
<path style=" stroke:none;fill-rule:nonzero;fill:rgb(27.839661%,16.859436%,16.079712%);fill-opacity:1;" d="M 214.617188 186.671875 C 214.589844 186.671875 214.566406 186.671875 214.539062 186.667969 C 214.300781 186.625 214.144531 186.402344 214.183594 186.164062 C 214.398438 184.960938 214.414062 183.675781 214.230469 182.449219 C 214.195312 182.214844 214.359375 181.992188 214.597656 181.960938 C 214.828125 181.929688 215.058594 182.085938 215.09375 182.324219 C 215.292969 183.660156 215.273438 185.003906 215.042969 186.3125 C 215.007812 186.527344 214.824219 186.671875 214.617188 186.671875 Z M 214.617188 186.671875 "/>
<path style=" stroke:none;fill-rule:nonzero;fill:rgb(99.609375%,99.21875%,93.728638%);fill-opacity:1;" d="M 211.570312 176.578125 C 212.613281 177.316406 213.460938 178.515625 214.023438 179.957031 "/>
<path style=" stroke:none;fill-rule:nonzero;fill:rgb(27.839661%,16.859436%,16.079712%);fill-opacity:1;" d="M 214.023438 180.390625 C 213.847656 180.390625 213.683594 180.285156 213.617188 180.113281 C 213.066406 178.710938 212.273438 177.609375 211.316406 176.933594 C 211.121094 176.792969 211.074219 176.523438 211.214844 176.328125 C 211.355469 176.128906 211.628906 176.082031 211.824219 176.222656 C 212.917969 177 213.820312 178.234375 214.429688 179.796875 C 214.515625 180.023438 214.40625 180.273438 214.179688 180.359375 C 214.128906 180.378906 214.074219 180.390625 214.023438 180.390625 Z M 214.023438 180.390625 "/>
</g>
</svg>
