<?xml version="1.0" encoding="UTF-8"?>
<svg xmlns="http://www.w3.org/2000/svg" xmlns:xlink="http://www.w3.org/1999/xlink" width="375pt" height="374.999991pt" viewBox="0 0 375 374.999991" version="1.2">
<defs>
<clipPath id="clip1">
  <path d="M 116 124 L 262.5 124 L 262.5 250 L 116 250 Z M 116 124 "/>
</clipPath>
<clipPath id="clip2">
  <path d="M 112.5 136 L 245 136 L 245 192 L 112.5 192 Z M 112.5 136 "/>
</clipPath>
</defs>
<g id="surface1">
<g clip-path="url(#clip1)" clip-rule="nonzero">
<path style=" stroke:none;fill-rule:nonzero;fill:rgb(78.039551%,92.939758%,90.19928%);fill-opacity:1;" d="M 256.457031 198.761719 C 256.992188 197.664062 257.464844 196.511719 257.875 195.304688 C 262.558594 181.480469 255.472656 164.917969 240.554688 160.917969 C 238.941406 140.664062 224.707031 126.769531 208.632812 124.398438 C 190.230469 121.683594 173.375 133.371094 167.765625 151.949219 C 161.007812 149.554688 154.421875 149.847656 148.210938 153.476562 C 145.394531 154.777344 142.820312 156.699219 140.507812 159.226562 C 137.113281 162.941406 134.90625 167.625 134.007812 172.5625 C 132.679688 172.773438 131.371094 172.984375 130.136719 173.425781 C 122.949219 176.003906 118.414062 181.308594 117.167969 189.300781 C 116.394531 194.28125 117.957031 199.242188 118.828125 201.25 C 122.273438 209.175781 130.257812 213.667969 138.367188 212.480469 C 138.773438 212.421875 139.359375 212.601562 139.707031 212.894531 C 140.136719 225.5625 146.285156 236.769531 155.515625 243.167969 C 170.320312 253.441406 189.367188 250.277344 201.386719 236.195312 C 206.535156 241.460938 212.664062 244.019531 219.863281 243.089844 C 227.019531 242.167969 232.578125 238.21875 236.636719 231.792969 C 238.507812 232.296875 240.285156 233.023438 242.121094 233.222656 C 249.3125 234.011719 255.152344 231.152344 259.4375 224.683594 C 261.078125 222.207031 262.628906 219 262.628906 213.378906 C 262.632812 207.582031 260.328125 202.300781 256.457031 198.761719 Z M 256.457031 198.761719 "/>
</g>
<g clip-path="url(#clip2)" clip-rule="nonzero">
<path style=" stroke:none;fill-rule:nonzero;fill:rgb(100%,100%,100%);fill-opacity:1;" d="M 131.304688 184.589844 L 113.457031 184.589844 C 112.964844 184.589844 112.566406 184.191406 112.566406 183.699219 C 112.566406 183.210938 112.964844 182.8125 113.457031 182.8125 L 131.304688 182.8125 C 131.796875 182.8125 132.195312 183.210938 132.195312 183.699219 C 132.195312 184.191406 131.796875 184.589844 131.304688 184.589844 Z M 136.429688 184.589844 L 133.859375 184.589844 C 133.367188 184.589844 132.96875 184.191406 132.96875 183.699219 C 132.96875 183.210938 133.367188 182.8125 133.859375 182.8125 L 136.429688 182.8125 C 136.921875 182.8125 137.320312 183.210938 137.320312 183.699219 C 137.320312 184.191406 136.921875 184.589844 136.429688 184.589844 Z M 143.644531 184.589844 L 139.117188 184.589844 C 138.625 184.589844 138.226562 184.191406 138.226562 183.699219 C 138.226562 183.210938 138.625 182.8125 139.117188 182.8125 L 143.644531 182.8125 C 144.136719 182.8125 144.535156 183.210938 144.535156 183.699219 C 144.535156 184.191406 144.136719 184.589844 143.644531 184.589844 Z M 143.644531 187.910156 L 126.535156 187.910156 C 126.042969 187.910156 125.644531 187.511719 125.644531 187.019531 C 125.644531 186.527344 126.042969 186.128906 126.535156 186.128906 L 143.644531 186.128906 C 144.136719 186.128906 144.535156 186.527344 144.535156 187.019531 C 144.535156 187.511719 144.136719 187.910156 143.644531 187.910156 Z M 123.453125 187.910156 L 122.421875 187.910156 C 121.929688 187.910156 121.53125 187.511719 121.53125 187.019531 C 121.53125 186.527344 121.929688 186.128906 122.421875 186.128906 L 123.453125 186.128906 C 123.945312 186.128906 124.34375 186.527344 124.34375 187.019531 C 124.34375 187.511719 123.945312 187.910156 123.453125 187.910156 Z M 119.222656 187.910156 L 116.632812 187.910156 C 116.140625 187.910156 115.742188 187.511719 115.742188 187.019531 C 115.742188 186.527344 116.140625 186.128906 116.632812 186.128906 L 119.222656 186.128906 C 119.714844 186.128906 120.113281 186.527344 120.113281 187.019531 C 120.113281 187.511719 119.71875 187.910156 119.222656 187.910156 Z M 135.480469 181.273438 L 126.535156 181.273438 C 126.042969 181.273438 125.644531 180.875 125.644531 180.382812 C 125.644531 179.890625 126.042969 179.492188 126.535156 179.492188 L 135.480469 179.492188 C 135.972656 179.492188 136.371094 179.890625 136.371094 180.382812 C 136.371094 180.875 135.972656 181.273438 135.480469 181.273438 Z M 135.480469 177.953125 L 133.242188 177.953125 C 132.753906 177.953125 132.355469 177.554688 132.355469 177.0625 C 132.355469 176.574219 132.753906 176.175781 133.242188 176.175781 L 135.480469 176.175781 C 135.972656 176.175781 136.371094 176.574219 136.371094 177.0625 C 136.371094 177.554688 135.972656 177.953125 135.480469 177.953125 Z M 129.664062 191.226562 L 126.535156 191.226562 C 126.042969 191.226562 125.644531 190.828125 125.644531 190.339844 C 125.644531 189.847656 126.042969 189.449219 126.535156 189.449219 L 129.664062 189.449219 C 130.15625 189.449219 130.554688 189.847656 130.554688 190.339844 C 130.554688 190.828125 130.15625 191.226562 129.664062 191.226562 Z M 230.996094 144.875 L 213.148438 144.875 C 212.65625 144.875 212.257812 144.476562 212.257812 143.984375 C 212.257812 143.492188 212.65625 143.09375 213.148438 143.09375 L 230.996094 143.09375 C 231.484375 143.09375 231.882812 143.492188 231.882812 143.984375 C 231.882812 144.476562 231.488281 144.875 230.996094 144.875 Z M 236.121094 144.875 L 233.550781 144.875 C 233.058594 144.875 232.660156 144.476562 232.660156 143.984375 C 232.660156 143.492188 233.058594 143.09375 233.550781 143.09375 L 236.121094 143.09375 C 236.613281 143.09375 237.011719 143.492188 237.011719 143.984375 C 237.011719 144.476562 236.613281 144.875 236.121094 144.875 Z M 243.335938 144.875 L 238.804688 144.875 C 238.316406 144.875 237.917969 144.476562 237.917969 143.984375 C 237.917969 143.492188 238.316406 143.09375 238.804688 143.09375 L 243.335938 143.09375 C 243.828125 143.09375 244.226562 143.492188 244.226562 143.984375 C 244.226562 144.476562 243.828125 144.875 243.335938 144.875 Z M 243.335938 148.191406 L 226.226562 148.191406 C 225.734375 148.191406 225.335938 147.792969 225.335938 147.300781 C 225.335938 146.8125 225.734375 146.414062 226.226562 146.414062 L 243.335938 146.414062 C 243.828125 146.414062 244.226562 146.8125 244.226562 147.300781 C 244.226562 147.792969 243.828125 148.191406 243.335938 148.191406 Z M 223.144531 148.191406 L 222.113281 148.191406 C 221.621094 148.191406 221.222656 147.792969 221.222656 147.300781 C 221.222656 146.8125 221.621094 146.414062 222.113281 146.414062 L 223.144531 146.414062 C 223.636719 146.414062 224.035156 146.8125 224.035156 147.300781 C 224.035156 147.792969 223.636719 148.191406 223.144531 148.191406 Z M 218.914062 148.191406 L 216.324219 148.191406 C 215.832031 148.191406 215.433594 147.792969 215.433594 147.300781 C 215.433594 146.8125 215.832031 146.414062 216.324219 146.414062 L 218.914062 146.414062 C 219.40625 146.414062 219.804688 146.8125 219.804688 147.300781 C 219.804688 147.792969 219.40625 148.191406 218.914062 148.191406 Z M 235.171875 141.558594 L 226.226562 141.558594 C 225.734375 141.558594 225.335938 141.160156 225.335938 140.667969 C 225.335938 140.175781 225.734375 139.777344 226.226562 139.777344 L 235.171875 139.777344 C 235.660156 139.777344 236.058594 140.175781 236.058594 140.667969 C 236.058594 141.160156 235.660156 141.558594 235.171875 141.558594 Z M 235.171875 138.238281 L 232.933594 138.238281 C 232.441406 138.238281 232.042969 137.839844 232.042969 137.347656 C 232.042969 136.855469 232.441406 136.457031 232.933594 136.457031 L 235.171875 136.457031 C 235.660156 136.457031 236.058594 136.855469 236.058594 137.347656 C 236.058594 137.839844 235.660156 138.238281 235.171875 138.238281 Z M 229.355469 151.511719 L 226.226562 151.511719 C 225.734375 151.511719 225.335938 151.113281 225.335938 150.621094 C 225.335938 150.128906 225.734375 149.730469 226.226562 149.730469 L 229.355469 149.730469 C 229.847656 149.730469 230.246094 150.128906 230.246094 150.621094 C 230.246094 151.113281 229.847656 151.511719 229.355469 151.511719 Z M 229.355469 151.511719 "/>
</g>
<path style=" stroke:none;fill-rule:nonzero;fill:rgb(99.21875%,98.81897%,93.728638%);fill-opacity:1;" d="M 232.011719 186.074219 C 232.011719 186.074219 250.898438 186.074219 251.015625 186.074219 C 255.378906 186.074219 258.914062 182.539062 258.914062 178.175781 C 258.914062 174.367188 256.222656 171.191406 252.640625 170.445312 C 252.679688 170.113281 252.707031 169.773438 252.707031 169.429688 C 252.707031 164.914062 249.046875 161.25 244.527344 161.25 C 241.859375 161.25 239.5 162.53125 238.003906 164.507812 C 237.621094 159.480469 233.132812 155.597656 227.875 156.238281 C 224.03125 156.710938 220.851562 159.679688 220.144531 163.488281 C 219.917969 164.707031 219.941406 165.894531 220.167969 167.003906 C 219.140625 165.894531 217.671875 165.199219 216.039062 165.199219 C 213.046875 165.199219 210.605469 167.523438 210.414062 170.464844 C 209.058594 170.164062 207.578125 170.183594 206.023438 170.769531 C 203.050781 171.882812 200.933594 174.683594 200.8125 177.855469 C 200.636719 182.363281 204.238281 186.070312 208.703125 186.070312 C 209.042969 186.070312 210.234375 186.070312 210.507812 186.070312 L 226.910156 186.070312 "/>
<path style=" stroke:none;fill-rule:nonzero;fill:rgb(27.839661%,16.859436%,16.079712%);fill-opacity:1;" d="M 251.015625 186.960938 L 232.011719 186.960938 C 231.519531 186.960938 231.121094 186.5625 231.121094 186.074219 C 231.121094 185.582031 231.519531 185.183594 232.011719 185.183594 L 251.015625 185.183594 C 254.878906 185.183594 258.023438 182.039062 258.023438 178.175781 C 258.023438 174.875 255.683594 171.988281 252.457031 171.316406 C 252.003906 171.21875 251.699219 170.796875 251.757812 170.335938 C 251.792969 170.039062 251.820312 169.738281 251.820312 169.429688 C 251.820312 165.410156 248.546875 162.140625 244.527344 162.140625 C 242.226562 162.140625 240.109375 163.199219 238.714844 165.042969 C 238.492188 165.339844 238.109375 165.472656 237.753906 165.359375 C 237.398438 165.257812 237.144531 164.945312 237.117188 164.574219 C 236.949219 162.371094 235.871094 160.300781 234.160156 158.898438 C 232.425781 157.480469 230.230469 156.851562 227.980469 157.125 C 224.519531 157.546875 221.65625 160.234375 221.019531 163.652344 C 220.820312 164.71875 220.828125 165.789062 221.039062 166.828125 C 221.121094 167.21875 220.929688 167.617188 220.574219 167.800781 C 220.222656 167.980469 219.785156 167.90625 219.515625 167.613281 C 218.601562 166.632812 217.367188 166.089844 216.035156 166.089844 C 213.542969 166.089844 211.464844 168.039062 211.300781 170.527344 C 211.28125 170.789062 211.15625 171.027344 210.945312 171.179688 C 210.738281 171.335938 210.472656 171.390625 210.21875 171.339844 C 208.878906 171.042969 207.609375 171.128906 206.335938 171.605469 C 203.667969 172.605469 201.804688 175.132812 201.699219 177.894531 C 201.625 179.820312 202.316406 181.648438 203.648438 183.035156 C 204.984375 184.421875 206.777344 185.1875 208.699219 185.1875 L 226.910156 185.1875 C 227.398438 185.1875 227.800781 185.585938 227.800781 186.078125 C 227.800781 186.566406 227.398438 186.964844 226.910156 186.964844 L 208.703125 186.964844 C 206.292969 186.964844 204.039062 186.007812 202.367188 184.269531 C 200.699219 182.527344 199.828125 180.242188 199.921875 177.824219 C 200.058594 174.359375 202.382812 171.191406 205.710938 169.941406 C 206.996094 169.460938 208.320312 169.292969 209.664062 169.441406 C 210.308594 166.5 212.941406 164.3125 216.039062 164.3125 C 217.109375 164.3125 218.160156 164.582031 219.097656 165.078125 C 219.105469 164.496094 219.160156 163.914062 219.269531 163.328125 C 220.046875 159.15625 223.539062 155.878906 227.765625 155.359375 C 230.5 155.019531 233.175781 155.792969 235.285156 157.523438 C 236.886719 158.835938 238.03125 160.625 238.574219 162.597656 C 240.207031 161.160156 242.300781 160.363281 244.527344 160.363281 C 249.53125 160.363281 253.601562 164.433594 253.601562 169.433594 C 253.601562 169.546875 253.597656 169.660156 253.59375 169.777344 C 257.238281 170.894531 259.804688 174.308594 259.804688 178.179688 C 259.804688 183.019531 255.859375 186.960938 251.015625 186.960938 Z M 251.015625 186.960938 "/>
<path style=" stroke:none;fill-rule:nonzero;fill:rgb(99.21875%,98.81897%,93.728638%);fill-opacity:1;" d="M 227.433594 168.671875 C 224.511719 168.480469 221.996094 170.5 221.816406 173.179688 C 221.792969 173.511719 221.808594 173.839844 221.855469 174.160156 C 221.292969 173.519531 220.457031 173.089844 219.5 173.027344 C 217.746094 172.910156 216.234375 174.070312 216.015625 175.644531 C 215.695312 175.558594 215.363281 175.5 215.019531 175.476562 C 212.460938 175.308594 210.261719 177.074219 210.101562 179.417969 "/>
<path style=" stroke:none;fill-rule:nonzero;fill:rgb(27.839661%,16.859436%,16.079712%);fill-opacity:1;" d="M 210.105469 179.863281 C 210.09375 179.863281 210.082031 179.863281 210.074219 179.863281 C 209.828125 179.847656 209.644531 179.636719 209.660156 179.390625 C 209.835938 176.804688 212.234375 174.867188 215.046875 175.035156 C 215.257812 175.046875 215.464844 175.074219 215.675781 175.113281 C 216.140625 173.550781 217.738281 172.457031 219.53125 172.585938 C 220.191406 172.628906 220.824219 172.835938 221.371094 173.175781 C 221.371094 173.167969 221.371094 173.160156 221.371094 173.152344 C 221.566406 170.230469 224.300781 168.046875 227.460938 168.230469 C 227.707031 168.246094 227.894531 168.460938 227.878906 168.703125 C 227.859375 168.949219 227.65625 169.132812 227.402344 169.121094 C 224.710938 168.9375 222.421875 170.78125 222.257812 173.210938 C 222.238281 173.503906 222.253906 173.800781 222.296875 174.097656 C 222.328125 174.289062 222.222656 174.480469 222.042969 174.566406 C 221.867188 174.648438 221.65625 174.605469 221.523438 174.457031 C 221.019531 173.886719 220.269531 173.527344 219.472656 173.476562 C 217.957031 173.375 216.644531 174.359375 216.457031 175.710938 C 216.441406 175.835938 216.367188 175.949219 216.261719 176.019531 C 216.152344 176.089844 216.023438 176.113281 215.898438 176.078125 C 215.597656 175.996094 215.289062 175.945312 214.992188 175.925781 C 212.679688 175.777344 210.691406 177.359375 210.546875 179.453125 C 210.53125 179.683594 210.339844 179.863281 210.105469 179.863281 Z M 210.105469 179.863281 "/>
<path style=" stroke:none;fill-rule:nonzero;fill:rgb(99.21875%,98.81897%,93.728638%);fill-opacity:1;" d="M 254.214844 171.371094 C 251.46875 170.078125 248.292969 170.992188 247.121094 173.417969 C 246.976562 173.71875 246.871094 174.027344 246.800781 174.34375 "/>
<path style=" stroke:none;fill-rule:nonzero;fill:rgb(27.839661%,16.859436%,16.079712%);fill-opacity:1;" d="M 246.796875 174.789062 C 246.765625 174.789062 246.730469 174.785156 246.699219 174.777344 C 246.457031 174.722656 246.308594 174.484375 246.363281 174.246094 C 246.441406 173.890625 246.5625 173.546875 246.71875 173.222656 C 247.996094 170.582031 251.445312 169.574219 254.402344 170.96875 C 254.625 171.074219 254.71875 171.339844 254.617188 171.5625 C 254.511719 171.785156 254.246094 171.878906 254.023438 171.777344 C 251.5 170.585938 248.585938 171.410156 247.519531 173.613281 C 247.394531 173.878906 247.296875 174.15625 247.230469 174.445312 C 247.183594 174.648438 247 174.789062 246.796875 174.789062 Z M 246.796875 174.789062 "/>
<path style=" stroke:none;fill-rule:nonzero;fill:rgb(0%,42.749023%,93.728638%);fill-opacity:1;" d="M 214.742188 224.199219 L 168.972656 224.199219 C 162.273438 224.199219 156.789062 218.71875 156.789062 212.019531 L 156.789062 166.25 C 156.789062 159.546875 162.273438 154.066406 168.972656 154.066406 L 214.742188 154.066406 C 221.441406 154.066406 226.925781 159.546875 226.925781 166.25 L 226.925781 212.019531 C 226.925781 218.71875 221.441406 224.199219 214.742188 224.199219 Z M 214.742188 224.199219 "/>
<path style=" stroke:none;fill-rule:nonzero;fill:rgb(27.839661%,16.859436%,16.079712%);fill-opacity:1;" d="M 214.742188 225.445312 L 168.972656 225.445312 C 161.566406 225.445312 155.542969 219.421875 155.542969 212.019531 L 155.542969 166.25 C 155.542969 158.84375 161.570312 152.820312 168.972656 152.820312 L 214.742188 152.820312 C 222.148438 152.820312 228.171875 158.84375 228.171875 166.25 L 228.171875 212.019531 C 228.171875 219.421875 222.148438 225.445312 214.742188 225.445312 Z M 168.972656 155.3125 C 162.941406 155.3125 158.035156 160.21875 158.035156 166.25 L 158.035156 212.019531 C 158.035156 218.050781 162.941406 222.957031 168.972656 222.957031 L 214.742188 222.957031 C 220.773438 222.957031 225.679688 218.050781 225.679688 212.019531 L 225.679688 166.25 C 225.679688 160.21875 220.773438 155.3125 214.742188 155.3125 Z M 168.972656 155.3125 "/>
<path style=" stroke:none;fill-rule:nonzero;fill:rgb(99.21875%,98.81897%,93.328857%);fill-opacity:1;" d="M 212.042969 219.191406 L 171.671875 219.191406 C 166.242188 219.191406 161.800781 214.75 161.800781 209.320312 L 161.800781 168.949219 C 161.800781 163.519531 166.242188 159.074219 171.671875 159.074219 L 212.042969 159.074219 C 217.472656 159.074219 221.917969 163.519531 221.917969 168.949219 L 221.917969 209.320312 C 221.917969 214.75 217.472656 219.191406 212.042969 219.191406 Z M 212.042969 219.191406 "/>
<path style=" stroke:none;fill-rule:nonzero;fill:rgb(27.839661%,16.859436%,16.079712%);fill-opacity:1;" d="M 212.78125 219.816406 L 170.933594 219.816406 C 165.554688 219.816406 161.175781 215.4375 161.175781 210.058594 L 161.175781 168.210938 C 161.175781 162.828125 165.554688 158.453125 170.933594 158.453125 L 210.78125 158.453125 C 211.125 158.453125 211.40625 158.730469 211.40625 159.074219 C 211.40625 159.417969 211.125 159.699219 210.78125 159.699219 L 170.933594 159.699219 C 166.238281 159.699219 162.421875 163.515625 162.421875 168.210938 L 162.421875 210.054688 C 162.421875 214.75 166.238281 218.566406 170.933594 218.566406 L 212.78125 218.566406 C 217.476562 218.566406 221.292969 214.75 221.292969 210.054688 L 221.292969 186.90625 C 221.292969 186.5625 221.574219 186.28125 221.917969 186.28125 C 222.257812 186.28125 222.539062 186.5625 222.539062 186.90625 L 222.539062 210.054688 C 222.539062 215.4375 218.160156 219.816406 212.78125 219.816406 Z M 212.78125 219.816406 "/>
<path style=" stroke:none;fill-rule:nonzero;fill:rgb(27.839661%,16.859436%,16.079712%);fill-opacity:1;" d="M 221.917969 184.191406 C 221.574219 184.191406 221.292969 183.910156 221.292969 183.566406 L 221.292969 179.113281 C 221.292969 178.769531 221.574219 178.492188 221.917969 178.492188 C 222.261719 178.492188 222.539062 178.769531 222.539062 179.113281 L 222.539062 183.566406 C 222.539062 183.910156 222.261719 184.191406 221.917969 184.191406 Z M 221.917969 177.511719 C 221.574219 177.511719 221.292969 177.230469 221.292969 176.886719 L 221.292969 174.660156 C 221.292969 174.320312 221.574219 174.039062 221.917969 174.039062 C 222.261719 174.039062 222.539062 174.320312 222.539062 174.660156 L 222.539062 176.886719 C 222.539062 177.230469 222.261719 177.511719 221.917969 177.511719 Z M 221.917969 177.511719 "/>
<path style=" stroke:none;fill-rule:nonzero;fill:rgb(7.058716%,47.839355%,84.709167%);fill-opacity:1;" d="M 208.039062 192.246094 L 208.039062 203.058594 L 201.667969 203.058594 L 201.578125 192.339844 C 201.578125 189.625 200.34375 187.699219 197.910156 187.699219 C 196.050781 187.699219 194.949219 188.941406 194.460938 190.148438 C 194.285156 190.578125 194.234375 191.183594 194.234375 191.785156 L 194.234375 203.058594 L 187.78125 203.058594 C 187.78125 203.058594 187.867188 184.773438 187.78125 182.878906 L 194.234375 182.878906 L 194.234375 185.996094 C 194.21875 186.019531 194.207031 186.042969 194.191406 186.066406 L 194.234375 186.066406 L 194.234375 185.996094 C 195.132812 184.496094 196.769531 182.753906 200.34375 182.753906 C 204.773438 182.742188 208.039062 185.503906 208.039062 192.246094 Z M 180.449219 173.367188 C 178.457031 173.367188 177.15625 174.734375 177.15625 176.53125 C 177.15625 178.285156 178.417969 179.695312 180.375 179.695312 L 180.410156 179.695312 C 182.441406 179.695312 183.703125 178.285156 183.703125 176.53125 C 183.660156 174.734375 182.4375 173.367188 180.449219 173.367188 Z M 177.246094 203.058594 L 183.617188 203.058594 L 183.617188 182.878906 L 177.246094 182.878906 Z M 177.246094 203.058594 "/>
<path style=" stroke:none;fill-rule:nonzero;fill:rgb(27.839661%,16.859436%,16.079712%);fill-opacity:1;" d="M 208.039062 203.679688 L 201.667969 203.679688 C 201.328125 203.679688 201.046875 203.402344 201.046875 203.0625 L 200.960938 192.34375 C 200.960938 191.132812 200.660156 188.320312 197.910156 188.320312 C 196.074219 188.320312 195.289062 189.761719 195.039062 190.382812 C 194.917969 190.675781 194.859375 191.148438 194.859375 191.785156 L 194.859375 203.058594 C 194.859375 203.398438 194.578125 203.679688 194.238281 203.679688 L 187.78125 203.679688 C 187.617188 203.679688 187.457031 203.613281 187.339844 203.496094 C 187.222656 203.378906 187.160156 203.21875 187.160156 203.054688 C 187.160156 202.871094 187.246094 184.761719 187.160156 182.90625 C 187.152344 182.738281 187.214844 182.574219 187.332031 182.449219 C 187.449219 182.324219 187.613281 182.257812 187.78125 182.257812 L 194.238281 182.257812 C 194.578125 182.257812 194.859375 182.535156 194.859375 182.878906 L 194.859375 184.167969 C 196.222656 182.800781 198.03125 182.128906 200.34375 182.128906 C 200.351562 182.128906 200.359375 182.128906 200.363281 182.128906 C 202.714844 182.128906 204.625 182.847656 206.042969 184.261719 C 207.78125 186 208.664062 188.683594 208.664062 192.246094 L 208.664062 203.054688 C 208.664062 203.398438 208.386719 203.679688 208.039062 203.679688 Z M 202.289062 202.433594 L 207.417969 202.433594 L 207.417969 192.246094 C 207.417969 189.027344 206.660156 186.640625 205.164062 185.144531 C 203.988281 183.96875 202.371094 183.375 200.363281 183.375 C 200.359375 183.375 200.351562 183.375 200.347656 183.375 C 196.984375 183.375 195.578125 184.996094 194.8125 186.25 C 194.632812 186.703125 193.910156 186.789062 193.675781 186.371094 C 193.582031 186.203125 193.554688 186.007812 193.617188 185.839844 L 193.617188 183.5 L 188.421875 183.5 C 188.476562 186.839844 188.421875 199.421875 188.410156 202.433594 L 193.617188 202.433594 L 193.617188 191.785156 C 193.617188 190.972656 193.703125 190.359375 193.886719 189.914062 C 194.605469 188.136719 196.113281 187.074219 197.914062 187.074219 C 200.558594 187.074219 202.207031 189.089844 202.207031 192.339844 Z M 183.617188 203.679688 L 177.246094 203.679688 C 176.902344 203.679688 176.621094 203.398438 176.621094 203.058594 L 176.621094 182.878906 C 176.621094 182.539062 176.902344 182.257812 177.246094 182.257812 L 183.617188 182.257812 C 183.960938 182.257812 184.238281 182.539062 184.238281 182.878906 L 184.238281 203.058594 C 184.238281 203.398438 183.960938 203.679688 183.617188 203.679688 Z M 177.867188 202.433594 L 182.992188 202.433594 L 182.992188 183.503906 L 177.867188 183.503906 Z M 180.414062 180.316406 C 178.148438 180.316406 176.535156 178.722656 176.535156 176.53125 C 176.535156 174.335938 178.179688 172.742188 180.449219 172.742188 C 182.679688 172.742188 184.273438 174.296875 184.328125 176.515625 C 184.328125 178.722656 182.679688 180.316406 180.414062 180.316406 Z M 180.449219 173.992188 C 178.855469 173.992188 177.78125 175.011719 177.78125 176.53125 C 177.78125 178.027344 178.847656 179.074219 180.375 179.074219 C 182.011719 179.074219 183.082031 178.050781 183.082031 176.53125 C 183.042969 174.996094 182.011719 173.992188 180.449219 173.992188 Z M 180.449219 173.992188 "/>
<path style=" stroke:none;fill-rule:nonzero;fill:rgb(99.21875%,98.81897%,93.728638%);fill-opacity:1;" d="M 173.578125 228.671875 C 176.621094 228.671875 179.261719 228.671875 179.300781 228.671875 C 182.707031 228.671875 185.472656 225.96875 185.472656 222.628906 C 185.472656 219.71875 183.367188 217.289062 180.566406 216.71875 C 180.601562 216.460938 180.621094 216.203125 180.621094 215.941406 C 180.621094 212.484375 177.761719 209.683594 174.230469 209.683594 C 172.144531 209.683594 170.300781 210.664062 169.132812 212.175781 C 168.832031 208.328125 165.320312 205.359375 161.214844 205.851562 C 158.210938 206.210938 155.726562 208.484375 155.171875 211.398438 C 154.996094 212.332031 155.015625 213.238281 155.191406 214.085938 C 154.382812 213.238281 153.238281 212.703125 151.960938 212.703125 C 149.625 212.703125 147.71875 214.484375 147.566406 216.734375 C 146.507812 216.503906 145.351562 216.519531 144.136719 216.964844 C 141.8125 217.820312 140.160156 219.960938 140.0625 222.386719 C 139.925781 225.835938 142.738281 228.671875 146.230469 228.671875 C 146.496094 228.671875 147.429688 228.671875 147.644531 228.671875 L 160.460938 228.671875 M 163.113281 228.671875 L 163.695312 228.671875 "/>
<path style=" stroke:none;fill-rule:nonzero;fill:rgb(27.839661%,16.859436%,16.079712%);fill-opacity:1;" d="M 179.300781 229.5625 L 173.578125 229.5625 C 173.085938 229.5625 172.6875 229.164062 172.6875 228.671875 C 172.6875 228.179688 173.085938 227.78125 173.578125 227.78125 L 179.300781 227.78125 C 182.210938 227.78125 184.582031 225.472656 184.582031 222.628906 C 184.582031 220.207031 182.820312 218.085938 180.390625 217.589844 C 179.933594 217.496094 179.625 217.066406 179.683594 216.605469 C 179.714844 216.386719 179.730469 216.167969 179.730469 215.941406 C 179.730469 212.980469 177.261719 210.574219 174.226562 210.574219 C 172.488281 210.574219 170.886719 211.355469 169.832031 212.71875 C 169.609375 213.007812 169.226562 213.132812 168.875 213.027344 C 168.519531 212.921875 168.269531 212.609375 168.242188 212.242188 C 168.117188 210.621094 167.339844 209.144531 166.058594 208.09375 C 164.738281 207.011719 163.058594 206.523438 161.316406 206.734375 C 158.691406 207.046875 156.523438 209.035156 156.042969 211.558594 C 155.894531 212.347656 155.898438 213.136719 156.058594 213.90625 C 156.140625 214.296875 155.953125 214.691406 155.601562 214.875 C 155.25 215.058594 154.816406 214.988281 154.542969 214.699219 C 153.867188 213.984375 152.949219 213.59375 151.960938 213.59375 C 150.113281 213.59375 148.574219 215 148.453125 216.792969 C 148.433594 217.050781 148.304688 217.289062 148.101562 217.445312 C 147.894531 217.601562 147.632812 217.660156 147.375 217.601562 C 146.363281 217.382812 145.402344 217.449219 144.441406 217.800781 C 142.433594 218.539062 141.03125 220.394531 140.949219 222.421875 C 140.894531 223.8125 141.398438 225.136719 142.371094 226.148438 C 143.382812 227.199219 144.75 227.78125 146.226562 227.78125 L 160.460938 227.78125 C 160.949219 227.78125 161.347656 228.179688 161.347656 228.667969 C 161.347656 229.160156 160.949219 229.558594 160.460938 229.558594 L 146.226562 229.558594 C 144.292969 229.558594 142.417969 228.765625 141.089844 227.382812 C 139.777344 226.019531 139.097656 224.230469 139.171875 222.351562 C 139.28125 219.613281 141.152344 217.113281 143.828125 216.128906 C 144.804688 215.769531 145.816406 215.636719 146.832031 215.722656 C 147.421875 213.464844 149.515625 211.8125 151.960938 211.8125 C 152.726562 211.8125 153.480469 211.980469 154.167969 212.289062 C 154.1875 211.9375 154.230469 211.582031 154.300781 211.226562 C 154.921875 207.945312 157.722656 205.371094 161.109375 204.964844 C 163.324219 204.699219 165.488281 205.320312 167.1875 206.714844 C 168.378906 207.691406 169.230469 208.949219 169.679688 210.359375 C 170.953125 209.347656 172.542969 208.789062 174.226562 208.789062 C 178.242188 208.789062 181.511719 211.996094 181.511719 215.9375 C 181.511719 215.972656 181.511719 216.007812 181.511719 216.042969 C 184.363281 216.96875 186.363281 219.625 186.363281 222.628906 C 186.359375 226.453125 183.195312 229.5625 179.300781 229.5625 Z M 163.695312 229.5625 L 163.113281 229.5625 C 162.621094 229.5625 162.222656 229.164062 162.222656 228.671875 C 162.222656 228.179688 162.621094 227.78125 163.113281 227.78125 L 163.695312 227.78125 C 164.183594 227.78125 164.582031 228.179688 164.582031 228.671875 C 164.582031 229.164062 164.1875 229.5625 163.695312 229.5625 Z M 163.695312 229.5625 "/>
<path style=" stroke:none;fill-rule:nonzero;fill:rgb(27.839661%,16.859436%,16.079712%);fill-opacity:1;" d="M 176.539062 220.144531 C 176.507812 220.144531 176.476562 220.140625 176.441406 220.136719 C 176.199219 220.082031 176.050781 219.84375 176.105469 219.601562 C 176.164062 219.332031 176.257812 219.070312 176.382812 218.820312 C 177.367188 216.820312 180.089844 216.082031 182.449219 217.175781 C 182.671875 217.277344 182.769531 217.542969 182.667969 217.765625 C 182.5625 217.988281 182.300781 218.082031 182.078125 217.980469 C 180.152344 217.09375 177.957031 217.644531 177.179688 219.214844 C 177.089844 219.398438 177.019531 219.59375 176.972656 219.796875 C 176.925781 220.003906 176.742188 220.144531 176.539062 220.144531 Z M 168.203125 229.5625 L 166.414062 229.5625 C 165.921875 229.5625 165.523438 229.164062 165.523438 228.671875 C 165.523438 228.179688 165.921875 227.78125 166.414062 227.78125 L 168.203125 227.78125 C 168.695312 227.78125 169.09375 228.179688 169.09375 228.671875 C 169.09375 229.164062 168.695312 229.5625 168.203125 229.5625 Z M 168.203125 229.5625 "/>
</g>
</svg>
