<?xml version="1.0" encoding="UTF-8"?>
<svg xmlns="http://www.w3.org/2000/svg" xmlns:xlink="http://www.w3.org/1999/xlink" width="375pt" height="374.999991pt" viewBox="0 0 375 374.999991" version="1.2">
<defs>
<clipPath id="clip1">
  <path d="M 112.5 136.125 L 184 136.125 L 184 237 L 112.5 237 Z M 112.5 136.125 "/>
</clipPath>
<clipPath id="clip2">
  <path d="M 121 138 L 262.5 138 L 262.5 238.875 L 121 238.875 Z M 121 138 "/>
</clipPath>
</defs>
<g id="surface1">
<path style=" stroke:none;fill-rule:nonzero;fill:rgb(100%,100%,100%);fill-opacity:1;" d="M 142.28125 229.941406 C 142.53125 225.207031 144.8125 221.542969 148.0625 218.699219 C 148.304688 218.101562 148.539062 217.511719 148.757812 216.929688 C 150.667969 211.785156 152.59375 206.644531 154.632812 201.550781 C 152.847656 197.363281 151.714844 193.023438 151.59375 188.390625 C 151.449219 182.960938 152.910156 178.179688 155 173.273438 C 157.359375 167.730469 162.011719 163.253906 167.808594 162.632812 C 170.722656 160.882812 174.160156 160.261719 177.503906 160.730469 C 177.449219 157.921875 178.503906 155.113281 180.554688 153.046875 C 181.078125 152.519531 181.628906 152.019531 182.210938 151.542969 C 177.460938 142.925781 168.308594 137.078125 157.769531 137.078125 C 142.347656 137.078125 129.851562 149.578125 129.851562 165 C 129.851562 170.644531 131.539062 175.886719 134.417969 180.277344 C 122.40625 183.398438 113.523438 194.28125 113.523438 207.269531 C 113.523438 222.691406 126.027344 235.191406 141.445312 235.191406 L 143.136719 235.191406 C 142.5 233.5625 142.183594 231.796875 142.28125 229.941406 "/>
<g clip-path="url(#clip1)" clip-rule="nonzero">
<path style=" stroke:none;fill-rule:nonzero;fill:rgb(13.729858%,27.059937%,37.649536%);fill-opacity:1;" d="M 142.28125 229.941406 L 143.21875 229.992188 C 143.339844 227.761719 143.929688 225.808594 144.875 224.058594 C 145.820312 222.3125 147.125 220.769531 148.683594 219.410156 C 148.796875 219.308594 148.878906 219.191406 148.9375 219.050781 C 149.179688 218.453125 149.417969 217.851562 149.640625 217.257812 C 151.546875 212.113281 153.472656 206.980469 155.507812 201.898438 C 155.601562 201.671875 155.597656 201.40625 155.5 201.179688 C 153.75 197.078125 152.648438 192.859375 152.53125 188.363281 C 152.527344 188.128906 152.523438 187.894531 152.523438 187.660156 C 152.523438 182.707031 153.890625 178.273438 155.863281 173.644531 C 156.992188 170.992188 158.671875 168.601562 160.730469 166.816406 C 162.792969 165.035156 165.226562 163.855469 167.910156 163.566406 C 168.046875 163.550781 168.175781 163.507812 168.292969 163.4375 C 170.429688 162.15625 172.878906 161.519531 175.359375 161.519531 C 176.03125 161.519531 176.703125 161.566406 177.375 161.660156 C 177.644531 161.699219 177.921875 161.613281 178.128906 161.433594 C 178.332031 161.25 178.449219 160.984375 178.441406 160.710938 C 178.441406 160.648438 178.441406 160.585938 178.441406 160.527344 C 178.441406 158.027344 179.402344 155.542969 181.222656 153.707031 C 181.722656 153.203125 182.25 152.726562 182.804688 152.269531 C 183.15625 151.984375 183.253906 151.488281 183.03125 151.089844 C 180.578125 146.636719 176.988281 142.898438 172.648438 140.273438 C 168.308594 137.648438 163.214844 136.136719 157.769531 136.136719 C 141.828125 136.136719 128.914062 149.058594 128.910156 165 C 128.910156 170.832031 130.65625 176.253906 133.632812 180.792969 L 134.417969 180.277344 L 134.179688 179.367188 C 127.972656 180.980469 122.574219 184.597656 118.726562 189.492188 C 114.882812 194.386719 112.582031 200.5625 112.585938 207.269531 C 112.585938 223.210938 125.511719 236.128906 141.445312 236.128906 L 143.136719 236.128906 C 143.449219 236.128906 143.742188 235.976562 143.914062 235.71875 C 144.09375 235.460938 144.128906 235.136719 144.015625 234.847656 C 143.492188 233.515625 143.203125 232.09375 143.203125 230.601562 C 143.203125 230.398438 143.207031 230.195312 143.21875 229.992188 L 141.339844 229.890625 C 141.328125 230.128906 141.320312 230.367188 141.320312 230.601562 C 141.320312 232.339844 141.660156 234 142.265625 235.535156 L 143.136719 235.191406 L 143.136719 234.25 L 141.445312 234.25 C 133.996094 234.25 127.253906 231.230469 122.371094 226.347656 C 117.484375 221.464844 114.464844 214.722656 114.464844 207.269531 C 114.464844 200.992188 116.609375 195.230469 120.207031 190.65625 C 123.804688 186.078125 128.851562 182.695312 134.652344 181.1875 C 134.945312 181.113281 135.1875 180.898438 135.296875 180.617188 C 135.402344 180.335938 135.371094 180.015625 135.203125 179.761719 C 132.421875 175.515625 130.792969 170.453125 130.792969 165 C 130.792969 157.546875 133.8125 150.804688 138.691406 145.921875 C 143.578125 141.035156 150.316406 138.019531 157.769531 138.019531 C 162.863281 138.019531 167.617188 139.429688 171.671875 141.882812 C 175.730469 144.335938 179.089844 147.832031 181.386719 151.996094 L 182.210938 151.542969 L 181.613281 150.816406 C 181.011719 151.308594 180.433594 151.828125 179.886719 152.382812 C 177.703125 154.589844 176.558594 157.546875 176.558594 160.527344 C 176.558594 160.601562 176.558594 160.675781 176.5625 160.746094 L 177.503906 160.730469 L 177.632812 159.796875 C 176.875 159.691406 176.117188 159.636719 175.359375 159.636719 C 172.558594 159.636719 169.773438 160.355469 167.328125 161.824219 L 167.808594 162.632812 L 167.710938 161.695312 C 164.597656 162.03125 161.800781 163.402344 159.5 165.394531 C 157.195312 167.390625 155.367188 170.015625 154.132812 172.90625 C 152.117188 177.640625 150.644531 182.351562 150.644531 187.660156 C 150.644531 187.910156 150.644531 188.160156 150.652344 188.414062 C 150.777344 193.1875 151.945312 197.652344 153.769531 201.917969 L 154.632812 201.550781 L 153.761719 201.199219 C 151.714844 206.308594 149.785156 211.453125 147.875 216.601562 C 147.664062 217.171875 147.433594 217.753906 147.191406 218.347656 L 148.0625 218.699219 L 147.445312 217.992188 C 145.75 219.472656 144.289062 221.183594 143.21875 223.164062 C 142.148438 225.140625 141.472656 227.386719 141.339844 229.894531 L 141.339844 229.890625 L 142.28125 229.941406 "/>
</g>
<path style=" stroke:none;fill-rule:nonzero;fill:rgb(86.669922%,68.629456%,56.079102%);fill-opacity:1;" d="M 191.835938 231.082031 L 164.773438 195.292969 L 178.511719 195.292969 L 178.511719 171.03125 L 205.167969 171.03125 L 205.167969 195.292969 L 218.898438 195.292969 Z M 233.554688 182.121094 C 233.554688 166.703125 221.054688 154.203125 205.636719 154.203125 C 200.84375 154.203125 196.34375 155.410156 192.402344 157.535156 C 188.316406 147.183594 178.246094 139.847656 166.441406 139.847656 C 151.019531 139.847656 138.523438 152.347656 138.523438 167.769531 C 138.523438 173.414062 140.210938 178.65625 143.089844 183.046875 C 131.078125 186.167969 122.195312 197.054688 122.195312 210.042969 C 122.195312 225.460938 134.703125 237.960938 150.117188 237.960938 L 233.554688 237.960938 C 248.972656 237.960938 261.476562 225.460938 261.476562 210.042969 C 261.476562 194.621094 248.972656 182.121094 233.554688 182.121094 "/>
<g clip-path="url(#clip2)" clip-rule="nonzero">
<path style=" stroke:none;fill-rule:nonzero;fill:rgb(13.729858%,27.059937%,37.649536%);fill-opacity:1;" d="M 191.835938 231.082031 L 192.589844 230.511719 L 166.667969 196.234375 L 178.511719 196.234375 C 178.757812 196.234375 179 196.132812 179.175781 195.960938 C 179.351562 195.785156 179.453125 195.542969 179.453125 195.292969 L 179.453125 171.96875 L 204.226562 171.96875 L 204.226562 195.292969 C 204.226562 195.542969 204.324219 195.785156 204.5 195.960938 C 204.675781 196.132812 204.917969 196.234375 205.167969 196.234375 L 217.007812 196.234375 L 191.089844 230.511719 L 191.835938 231.082031 L 192.589844 230.511719 L 191.835938 231.082031 L 192.589844 231.648438 L 219.648438 195.859375 C 219.863281 195.578125 219.898438 195.195312 219.738281 194.875 C 219.582031 194.554688 219.253906 194.351562 218.898438 194.351562 L 206.105469 194.351562 L 206.105469 171.03125 C 206.105469 170.78125 206.003906 170.539062 205.832031 170.367188 C 205.65625 170.191406 205.414062 170.089844 205.167969 170.089844 L 178.511719 170.089844 C 178.261719 170.089844 178.019531 170.191406 177.84375 170.367188 C 177.671875 170.539062 177.570312 170.78125 177.570312 171.03125 L 177.570312 194.351562 L 164.773438 194.351562 C 164.417969 194.351562 164.09375 194.554688 163.933594 194.875 C 163.773438 195.195312 163.808594 195.578125 164.027344 195.859375 L 191.089844 231.648438 C 191.265625 231.882812 191.542969 232.019531 191.835938 232.019531 C 192.132812 232.019531 192.410156 231.882812 192.589844 231.648438 Z M 233.554688 182.121094 L 234.496094 182.121094 C 234.496094 166.183594 221.578125 153.261719 205.636719 153.261719 C 200.6875 153.261719 196.027344 154.511719 191.957031 156.707031 L 192.402344 157.535156 L 193.277344 157.191406 C 191.164062 151.839844 187.507812 147.269531 182.851562 144.039062 C 178.199219 140.804688 172.539062 138.90625 166.441406 138.90625 C 150.5 138.910156 137.582031 151.828125 137.582031 167.769531 C 137.582031 173.601562 139.328125 179.027344 142.300781 183.566406 L 143.089844 183.046875 L 142.851562 182.140625 C 136.644531 183.75 131.246094 187.371094 127.398438 192.261719 C 123.550781 197.15625 121.253906 203.332031 121.253906 210.042969 C 121.257812 225.980469 134.179688 238.902344 150.117188 238.902344 L 233.554688 238.902344 C 249.492188 238.902344 262.414062 225.980469 262.414062 210.042969 C 262.414062 194.101562 249.492188 181.179688 233.554688 181.179688 L 233.554688 182.121094 L 234.496094 182.121094 L 233.554688 182.121094 L 233.554688 183.0625 C 241.007812 183.0625 247.746094 186.082031 252.632812 190.964844 C 257.515625 195.847656 260.535156 202.589844 260.535156 210.042969 C 260.535156 217.496094 257.515625 224.234375 252.632812 229.117188 C 247.746094 234.003906 241.007812 237.019531 233.554688 237.019531 L 150.117188 237.019531 C 142.667969 237.019531 135.925781 234.003906 131.039062 229.117188 C 126.15625 224.234375 123.136719 217.496094 123.136719 210.042969 C 123.136719 203.761719 125.28125 198.003906 128.878906 193.425781 C 132.476562 188.847656 137.523438 185.464844 143.324219 183.960938 C 143.617188 183.882812 143.855469 183.667969 143.964844 183.386719 C 144.074219 183.105469 144.039062 182.785156 143.875 182.535156 C 141.09375 178.285156 139.464844 173.226562 139.464844 167.769531 C 139.464844 160.316406 142.480469 153.578125 147.367188 148.691406 C 152.25 143.808594 158.988281 140.789062 166.441406 140.789062 C 172.148438 140.789062 177.425781 142.5625 181.78125 145.582031 C 186.132812 148.605469 189.554688 152.878906 191.527344 157.878906 C 191.625 158.128906 191.824219 158.324219 192.078125 158.417969 C 192.332031 158.511719 192.609375 158.492188 192.847656 158.363281 C 196.65625 156.3125 201.003906 155.144531 205.636719 155.140625 C 213.089844 155.144531 219.828125 158.160156 224.710938 163.046875 C 229.59375 167.929688 232.613281 174.667969 232.613281 182.121094 C 232.613281 182.367188 232.714844 182.609375 232.886719 182.785156 C 233.0625 182.960938 233.304688 183.0625 233.554688 183.0625 L 233.554688 182.121094 "/>
</g>
</g>
</svg>
