<?xml version="1.0" encoding="UTF-8"?>
<svg xmlns="http://www.w3.org/2000/svg" xmlns:xlink="http://www.w3.org/1999/xlink" width="375pt" height="374.999991pt" viewBox="0 0 375 374.999991" version="1.2">
<defs>
<clipPath id="clip1">
  <path d="M 112.5 112.5 L 262.5 112.5 L 262.5 262.5 L 112.5 262.5 Z M 112.5 112.5 "/>
</clipPath>
</defs>
<g id="surface1">
<g clip-path="url(#clip1)" clip-rule="nonzero">
<path style=" stroke:none;fill-rule:nonzero;fill:rgb(0%,0%,0%);fill-opacity:1;" d="M 187.5 112.5 C 146.082031 112.5 112.5 146.082031 112.5 187.5 C 112.5 228.917969 146.082031 262.5 187.5 262.5 C 228.917969 262.5 262.5 228.917969 262.5 187.5 C 262.5 146.082031 228.917969 112.5 187.5 112.5 Z M 227.898438 172.09375 C 227.9375 172.925781 227.957031 173.75 227.957031 174.574219 C 227.957031 200 208.613281 229.300781 173.230469 229.300781 C 162.363281 229.300781 152.257812 226.117188 143.75 220.65625 C 145.257812 220.835938 146.789062 220.917969 148.34375 220.917969 C 157.363281 220.917969 165.648438 217.851562 172.226562 212.679688 C 163.804688 212.523438 156.699219 206.960938 154.257812 199.324219 C 155.429688 199.550781 156.636719 199.667969 157.875 199.667969 C 159.632812 199.667969 161.335938 199.429688 162.945312 198.992188 C 154.144531 197.230469 147.511719 189.457031 147.511719 180.136719 C 147.511719 180.054688 147.511719 179.976562 147.511719 179.894531 C 150.105469 181.335938 153.070312 182.199219 156.226562 182.300781 C 151.070312 178.855469 147.667969 172.960938 147.667969 166.292969 C 147.667969 162.761719 148.613281 159.457031 150.269531 156.625 C 159.757812 168.261719 173.929688 175.925781 189.914062 176.726562 C 189.585938 175.320312 189.417969 173.851562 189.417969 172.34375 C 189.417969 161.726562 198.03125 153.105469 208.648438 153.105469 C 214.179688 153.105469 219.179688 155.445312 222.6875 159.179688 C 227.070312 158.3125 231.1875 156.71875 234.90625 154.511719 C 233.46875 159.007812 230.417969 162.769531 226.445312 165.15625 C 230.332031 164.695312 234.039062 163.664062 237.492188 162.132812 C 234.925781 165.992188 231.667969 169.375 227.898438 172.09375 Z M 227.898438 172.09375 "/>
</g>
</g>
</svg>
